<?xml version="1.0" encoding="utf-8" standalone="no"?>
<!DOCTYPE svg PUBLIC "-//W3C//DTD SVG 1.1//EN"
  "http://www.w3.org/Graphics/SVG/1.1/DTD/svg11.dtd">
<svg xmlns:xlink="http://www.w3.org/1999/xlink" width="1080pt" height="360pt" viewBox="0 0 1080 360" xmlns="http://www.w3.org/2000/svg" version="1.1">
 <metadata>
  <rdf:RDF xmlns:dc="http://purl.org/dc/elements/1.1/" xmlns:cc="http://creativecommons.org/ns#" xmlns:rdf="http://www.w3.org/1999/02/22-rdf-syntax-ns#">
   <cc:Work>
    <dc:type rdf:resource="http://purl.org/dc/dcmitype/StillImage"/>
    <dc:date>2022-03-29T22:07:02.998364</dc:date>
    <dc:format>image/svg+xml</dc:format>
    <dc:creator>
     <cc:Agent>
      <dc:title>Matplotlib v3.5.0, https://matplotlib.org/</dc:title>
     </cc:Agent>
    </dc:creator>
   </cc:Work>
  </rdf:RDF>
 </metadata>
 <defs>
  <style type="text/css">*{stroke-linejoin: round; stroke-linecap: butt}</style>
 </defs>
 <g id="figure_1">
  <g id="patch_1">
   <path d="M 0 360 
L 1080 360 
L 1080 0 
L 0 0 
z
" style="fill: #ffffff"/>
  </g>
  <g id="axes_1">
   <g id="patch_2">
    <path d="M 135 320.4 
L 381.176471 320.4 
L 381.176471 43.2 
L 135 43.2 
z
" style="fill: #ffffff"/>
   </g>
   <g id="patch_3">
    <path d="M 146.18984 320.4 
L 157.765536 320.4 
L 157.765536 56.4 
L 146.18984 56.4 
z
" clip-path="url(#p42a6186f11)" style="fill: #1f77b4"/>
   </g>
   <g id="patch_4">
    <path d="M 223.361147 320.4 
L 234.936843 320.4 
L 234.936843 268.652389 
L 223.361147 268.652389 
z
" clip-path="url(#p42a6186f11)" style="fill: #1f77b4"/>
   </g>
   <g id="patch_5">
    <path d="M 300.532454 320.4 
L 312.10815 320.4 
L 312.10815 315.74175 
L 300.532454 315.74175 
z
" clip-path="url(#p42a6186f11)" style="fill: #1f77b4"/>
   </g>
   <g id="patch_6">
    <path d="M 157.765536 320.4 
L 169.341232 320.4 
L 169.341232 73.795368 
L 157.765536 73.795368 
z
" clip-path="url(#p42a6186f11)" style="fill: #ff7f0e"/>
   </g>
   <g id="patch_7">
    <path d="M 234.936843 320.4 
L 246.512539 320.4 
L 246.512539 270.902692 
L 234.936843 270.902692 
z
" clip-path="url(#p42a6186f11)" style="fill: #ff7f0e"/>
   </g>
   <g id="patch_8">
    <path d="M 312.10815 320.4 
L 323.683847 320.4 
L 323.683847 318.30744 
L 312.10815 318.30744 
z
" clip-path="url(#p42a6186f11)" style="fill: #ff7f0e"/>
   </g>
   <g id="patch_9">
    <path d="M 169.341232 320.4 
L 180.916928 320.4 
L 180.916928 119.321122 
L 169.341232 119.321122 
z
" clip-path="url(#p42a6186f11)" style="fill: #2ca02c"/>
   </g>
   <g id="patch_10">
    <path d="M 246.512539 320.4 
L 258.088235 320.4 
L 258.088235 282.206807 
L 246.512539 282.206807 
z
" clip-path="url(#p42a6186f11)" style="fill: #2ca02c"/>
   </g>
   <g id="patch_11">
    <path d="M 323.683847 320.4 
L 335.259543 320.4 
L 335.259543 318.450141 
L 323.683847 318.450141 
z
" clip-path="url(#p42a6186f11)" style="fill: #2ca02c"/>
   </g>
   <g id="patch_12">
    <path d="M 180.916928 320.4 
L 192.492624 320.4 
L 192.492624 125.825888 
L 180.916928 125.825888 
z
" clip-path="url(#p42a6186f11)" style="fill: #d62728"/>
   </g>
   <g id="patch_13">
    <path d="M 258.088235 320.4 
L 269.663931 320.4 
L 269.663931 281.339401 
L 258.088235 281.339401 
z
" clip-path="url(#p42a6186f11)" style="fill: #d62728"/>
   </g>
   <g id="patch_14">
    <path d="M 335.259543 320.4 
L 346.835239 320.4 
L 346.835239 318.678235 
L 335.259543 318.678235 
z
" clip-path="url(#p42a6186f11)" style="fill: #d62728"/>
   </g>
   <g id="patch_15">
    <path d="M 192.492624 320.4 
L 204.06832 320.4 
L 204.06832 141.90173 
L 192.492624 141.90173 
z
" clip-path="url(#p42a6186f11)" style="fill: #9467bd"/>
   </g>
   <g id="patch_16">
    <path d="M 269.663931 320.4 
L 281.239628 320.4 
L 281.239628 274.988397 
L 269.663931 274.988397 
z
" clip-path="url(#p42a6186f11)" style="fill: #9467bd"/>
   </g>
   <g id="patch_17">
    <path d="M 346.835239 320.4 
L 358.410935 320.4 
L 358.410935 312.075598 
L 346.835239 312.075598 
z
" clip-path="url(#p42a6186f11)" style="fill: #9467bd"/>
   </g>
   <g id="patch_18">
    <path d="M 204.06832 320.4 
L 215.644016 320.4 
L 215.644016 153.002543 
L 204.06832 153.002543 
z
" clip-path="url(#p42a6186f11)" style="fill: #8c564b"/>
   </g>
   <g id="patch_19">
    <path d="M 281.239628 320.4 
L 292.815324 320.4 
L 292.815324 275.345329 
L 281.239628 275.345329 
z
" clip-path="url(#p42a6186f11)" style="fill: #8c564b"/>
   </g>
   <g id="patch_20">
    <path d="M 358.410935 320.4 
L 369.986631 320.4 
L 369.986631 309.940553 
L 358.410935 309.940553 
z
" clip-path="url(#p42a6186f11)" style="fill: #8c564b"/>
   </g>
   <g id="matplotlib.axis_1">
    <g id="xtick_1">
     <g id="line2d_1">
      <defs>
       <path id="me5581c05e3" d="M 0 0 
L 0 3.5 
" style="stroke: #000000; stroke-width: 0.8"/>
      </defs>
      <g>
       <use xlink:href="#me5581c05e3" x="180.916928" y="320.4" style="stroke: #000000; stroke-width: 0.8"/>
      </g>
     </g>
     <g id="text_1">
      <!-- [0, 3) -->
      <g transform="translate(164.786303 336.518125)scale(0.12 -0.12)">
       <defs>
        <path id="DejaVuSans-5b" d="M 550 4863 
L 1875 4863 
L 1875 4416 
L 1125 4416 
L 1125 -397 
L 1875 -397 
L 1875 -844 
L 550 -844 
L 550 4863 
z
" transform="scale(0.015625)"/>
        <path id="DejaVuSans-30" d="M 2034 4250 
Q 1547 4250 1301 3770 
Q 1056 3291 1056 2328 
Q 1056 1369 1301 889 
Q 1547 409 2034 409 
Q 2525 409 2770 889 
Q 3016 1369 3016 2328 
Q 3016 3291 2770 3770 
Q 2525 4250 2034 4250 
z
M 2034 4750 
Q 2819 4750 3233 4129 
Q 3647 3509 3647 2328 
Q 3647 1150 3233 529 
Q 2819 -91 2034 -91 
Q 1250 -91 836 529 
Q 422 1150 422 2328 
Q 422 3509 836 4129 
Q 1250 4750 2034 4750 
z
" transform="scale(0.015625)"/>
        <path id="DejaVuSans-2c" d="M 750 794 
L 1409 794 
L 1409 256 
L 897 -744 
L 494 -744 
L 750 256 
L 750 794 
z
" transform="scale(0.015625)"/>
        <path id="DejaVuSans-20" transform="scale(0.015625)"/>
        <path id="DejaVuSans-33" d="M 2597 2516 
Q 3050 2419 3304 2112 
Q 3559 1806 3559 1356 
Q 3559 666 3084 287 
Q 2609 -91 1734 -91 
Q 1441 -91 1130 -33 
Q 819 25 488 141 
L 488 750 
Q 750 597 1062 519 
Q 1375 441 1716 441 
Q 2309 441 2620 675 
Q 2931 909 2931 1356 
Q 2931 1769 2642 2001 
Q 2353 2234 1838 2234 
L 1294 2234 
L 1294 2753 
L 1863 2753 
Q 2328 2753 2575 2939 
Q 2822 3125 2822 3475 
Q 2822 3834 2567 4026 
Q 2313 4219 1838 4219 
Q 1578 4219 1281 4162 
Q 984 4106 628 3988 
L 628 4550 
Q 988 4650 1302 4700 
Q 1616 4750 1894 4750 
Q 2613 4750 3031 4423 
Q 3450 4097 3450 3541 
Q 3450 3153 3228 2886 
Q 3006 2619 2597 2516 
z
" transform="scale(0.015625)"/>
        <path id="DejaVuSans-29" d="M 513 4856 
L 1013 4856 
Q 1481 4119 1714 3412 
Q 1947 2706 1947 2009 
Q 1947 1309 1714 600 
Q 1481 -109 1013 -844 
L 513 -844 
Q 928 -128 1133 580 
Q 1338 1288 1338 2009 
Q 1338 2731 1133 3434 
Q 928 4138 513 4856 
z
" transform="scale(0.015625)"/>
       </defs>
       <use xlink:href="#DejaVuSans-5b"/>
       <use xlink:href="#DejaVuSans-30" x="39.013672"/>
       <use xlink:href="#DejaVuSans-2c" x="102.636719"/>
       <use xlink:href="#DejaVuSans-20" x="134.423828"/>
       <use xlink:href="#DejaVuSans-33" x="166.210938"/>
       <use xlink:href="#DejaVuSans-29" x="229.833984"/>
      </g>
     </g>
    </g>
    <g id="xtick_2">
     <g id="line2d_2">
      <g>
       <use xlink:href="#me5581c05e3" x="258.088235" y="320.4" style="stroke: #000000; stroke-width: 0.8"/>
      </g>
     </g>
     <g id="text_2">
      <!-- [3, 40) -->
      <g transform="translate(238.14011 336.518125)scale(0.12 -0.12)">
       <defs>
        <path id="DejaVuSans-34" d="M 2419 4116 
L 825 1625 
L 2419 1625 
L 2419 4116 
z
M 2253 4666 
L 3047 4666 
L 3047 1625 
L 3713 1625 
L 3713 1100 
L 3047 1100 
L 3047 0 
L 2419 0 
L 2419 1100 
L 313 1100 
L 313 1709 
L 2253 4666 
z
" transform="scale(0.015625)"/>
       </defs>
       <use xlink:href="#DejaVuSans-5b"/>
       <use xlink:href="#DejaVuSans-33" x="39.013672"/>
       <use xlink:href="#DejaVuSans-2c" x="102.636719"/>
       <use xlink:href="#DejaVuSans-20" x="134.423828"/>
       <use xlink:href="#DejaVuSans-34" x="166.210938"/>
       <use xlink:href="#DejaVuSans-30" x="229.833984"/>
       <use xlink:href="#DejaVuSans-29" x="293.457031"/>
      </g>
     </g>
    </g>
    <g id="xtick_3">
     <g id="line2d_3">
      <g>
       <use xlink:href="#me5581c05e3" x="335.259543" y="320.4" style="stroke: #000000; stroke-width: 0.8"/>
      </g>
     </g>
     <g id="text_3">
      <!-- [40, +∞) -->
      <g transform="translate(309.103293 336.518125)scale(0.12 -0.12)">
       <defs>
        <path id="DejaVuSans-2b" d="M 2944 4013 
L 2944 2272 
L 4684 2272 
L 4684 1741 
L 2944 1741 
L 2944 0 
L 2419 0 
L 2419 1741 
L 678 1741 
L 678 2272 
L 2419 2272 
L 2419 4013 
L 2944 4013 
z
" transform="scale(0.015625)"/>
        <path id="DejaVuSans-221e" d="M 2916 1091 
Q 2819 1203 2666 1466 
Q 2456 1091 2272 925 
Q 2041 725 1681 725 
Q 1259 725 981 1041 
Q 688 1372 688 1919 
Q 688 2444 981 2800 
Q 1244 3116 1688 3116 
Q 1916 3116 2084 3022 
Q 2281 2919 2416 2741 
Q 2541 2581 2666 2366 
Q 2875 2741 3059 2906 
Q 3291 3106 3650 3106 
Q 4072 3106 4350 2791 
Q 4644 2459 4644 1913 
Q 4644 1388 4350 1031 
Q 4088 716 3644 716 
Q 3416 716 3247 809 
Q 3078 894 2916 1091 
z
M 1647 1134 
Q 2163 1134 2472 1884 
Q 2075 2703 1647 2703 
Q 1334 2703 1175 2478 
Q 1003 2238 1003 1919 
Q 1003 1569 1175 1353 
Q 1350 1134 1647 1134 
z
M 3684 2697 
Q 3219 2697 2859 1947 
Q 3253 1128 3684 1128 
Q 3997 1128 4156 1353 
Q 4328 1594 4328 1913 
Q 4328 2263 4156 2478 
Q 3981 2697 3684 2697 
z
" transform="scale(0.015625)"/>
       </defs>
       <use xlink:href="#DejaVuSans-5b"/>
       <use xlink:href="#DejaVuSans-34" x="39.013672"/>
       <use xlink:href="#DejaVuSans-30" x="102.636719"/>
       <use xlink:href="#DejaVuSans-2c" x="166.259766"/>
       <use xlink:href="#DejaVuSans-20" x="198.046875"/>
       <use xlink:href="#DejaVuSans-2b" x="229.833984"/>
       <use xlink:href="#DejaVuSans-221e" x="313.623047"/>
       <use xlink:href="#DejaVuSans-29" x="396.923828"/>
      </g>
     </g>
    </g>
    <g id="text_4">
     <!-- Relation level SE Ranges -->
     <g transform="translate(169.09961 353.9555)scale(0.144 -0.144)">
      <defs>
       <path id="DejaVuSans-52" d="M 2841 2188 
Q 3044 2119 3236 1894 
Q 3428 1669 3622 1275 
L 4263 0 
L 3584 0 
L 2988 1197 
Q 2756 1666 2539 1819 
Q 2322 1972 1947 1972 
L 1259 1972 
L 1259 0 
L 628 0 
L 628 4666 
L 2053 4666 
Q 2853 4666 3247 4331 
Q 3641 3997 3641 3322 
Q 3641 2881 3436 2590 
Q 3231 2300 2841 2188 
z
M 1259 4147 
L 1259 2491 
L 2053 2491 
Q 2509 2491 2742 2702 
Q 2975 2913 2975 3322 
Q 2975 3731 2742 3939 
Q 2509 4147 2053 4147 
L 1259 4147 
z
" transform="scale(0.015625)"/>
       <path id="DejaVuSans-65" d="M 3597 1894 
L 3597 1613 
L 953 1613 
Q 991 1019 1311 708 
Q 1631 397 2203 397 
Q 2534 397 2845 478 
Q 3156 559 3463 722 
L 3463 178 
Q 3153 47 2828 -22 
Q 2503 -91 2169 -91 
Q 1331 -91 842 396 
Q 353 884 353 1716 
Q 353 2575 817 3079 
Q 1281 3584 2069 3584 
Q 2775 3584 3186 3129 
Q 3597 2675 3597 1894 
z
M 3022 2063 
Q 3016 2534 2758 2815 
Q 2500 3097 2075 3097 
Q 1594 3097 1305 2825 
Q 1016 2553 972 2059 
L 3022 2063 
z
" transform="scale(0.015625)"/>
       <path id="DejaVuSans-6c" d="M 603 4863 
L 1178 4863 
L 1178 0 
L 603 0 
L 603 4863 
z
" transform="scale(0.015625)"/>
       <path id="DejaVuSans-61" d="M 2194 1759 
Q 1497 1759 1228 1600 
Q 959 1441 959 1056 
Q 959 750 1161 570 
Q 1363 391 1709 391 
Q 2188 391 2477 730 
Q 2766 1069 2766 1631 
L 2766 1759 
L 2194 1759 
z
M 3341 1997 
L 3341 0 
L 2766 0 
L 2766 531 
Q 2569 213 2275 61 
Q 1981 -91 1556 -91 
Q 1019 -91 701 211 
Q 384 513 384 1019 
Q 384 1609 779 1909 
Q 1175 2209 1959 2209 
L 2766 2209 
L 2766 2266 
Q 2766 2663 2505 2880 
Q 2244 3097 1772 3097 
Q 1472 3097 1187 3025 
Q 903 2953 641 2809 
L 641 3341 
Q 956 3463 1253 3523 
Q 1550 3584 1831 3584 
Q 2591 3584 2966 3190 
Q 3341 2797 3341 1997 
z
" transform="scale(0.015625)"/>
       <path id="DejaVuSans-74" d="M 1172 4494 
L 1172 3500 
L 2356 3500 
L 2356 3053 
L 1172 3053 
L 1172 1153 
Q 1172 725 1289 603 
Q 1406 481 1766 481 
L 2356 481 
L 2356 0 
L 1766 0 
Q 1100 0 847 248 
Q 594 497 594 1153 
L 594 3053 
L 172 3053 
L 172 3500 
L 594 3500 
L 594 4494 
L 1172 4494 
z
" transform="scale(0.015625)"/>
       <path id="DejaVuSans-69" d="M 603 3500 
L 1178 3500 
L 1178 0 
L 603 0 
L 603 3500 
z
M 603 4863 
L 1178 4863 
L 1178 4134 
L 603 4134 
L 603 4863 
z
" transform="scale(0.015625)"/>
       <path id="DejaVuSans-6f" d="M 1959 3097 
Q 1497 3097 1228 2736 
Q 959 2375 959 1747 
Q 959 1119 1226 758 
Q 1494 397 1959 397 
Q 2419 397 2687 759 
Q 2956 1122 2956 1747 
Q 2956 2369 2687 2733 
Q 2419 3097 1959 3097 
z
M 1959 3584 
Q 2709 3584 3137 3096 
Q 3566 2609 3566 1747 
Q 3566 888 3137 398 
Q 2709 -91 1959 -91 
Q 1206 -91 779 398 
Q 353 888 353 1747 
Q 353 2609 779 3096 
Q 1206 3584 1959 3584 
z
" transform="scale(0.015625)"/>
       <path id="DejaVuSans-6e" d="M 3513 2113 
L 3513 0 
L 2938 0 
L 2938 2094 
Q 2938 2591 2744 2837 
Q 2550 3084 2163 3084 
Q 1697 3084 1428 2787 
Q 1159 2491 1159 1978 
L 1159 0 
L 581 0 
L 581 3500 
L 1159 3500 
L 1159 2956 
Q 1366 3272 1645 3428 
Q 1925 3584 2291 3584 
Q 2894 3584 3203 3211 
Q 3513 2838 3513 2113 
z
" transform="scale(0.015625)"/>
       <path id="DejaVuSans-76" d="M 191 3500 
L 800 3500 
L 1894 563 
L 2988 3500 
L 3597 3500 
L 2284 0 
L 1503 0 
L 191 3500 
z
" transform="scale(0.015625)"/>
       <path id="DejaVuSans-53" d="M 3425 4513 
L 3425 3897 
Q 3066 4069 2747 4153 
Q 2428 4238 2131 4238 
Q 1616 4238 1336 4038 
Q 1056 3838 1056 3469 
Q 1056 3159 1242 3001 
Q 1428 2844 1947 2747 
L 2328 2669 
Q 3034 2534 3370 2195 
Q 3706 1856 3706 1288 
Q 3706 609 3251 259 
Q 2797 -91 1919 -91 
Q 1588 -91 1214 -16 
Q 841 59 441 206 
L 441 856 
Q 825 641 1194 531 
Q 1563 422 1919 422 
Q 2459 422 2753 634 
Q 3047 847 3047 1241 
Q 3047 1584 2836 1778 
Q 2625 1972 2144 2069 
L 1759 2144 
Q 1053 2284 737 2584 
Q 422 2884 422 3419 
Q 422 4038 858 4394 
Q 1294 4750 2059 4750 
Q 2388 4750 2728 4690 
Q 3069 4631 3425 4513 
z
" transform="scale(0.015625)"/>
       <path id="DejaVuSans-45" d="M 628 4666 
L 3578 4666 
L 3578 4134 
L 1259 4134 
L 1259 2753 
L 3481 2753 
L 3481 2222 
L 1259 2222 
L 1259 531 
L 3634 531 
L 3634 0 
L 628 0 
L 628 4666 
z
" transform="scale(0.015625)"/>
       <path id="DejaVuSans-67" d="M 2906 1791 
Q 2906 2416 2648 2759 
Q 2391 3103 1925 3103 
Q 1463 3103 1205 2759 
Q 947 2416 947 1791 
Q 947 1169 1205 825 
Q 1463 481 1925 481 
Q 2391 481 2648 825 
Q 2906 1169 2906 1791 
z
M 3481 434 
Q 3481 -459 3084 -895 
Q 2688 -1331 1869 -1331 
Q 1566 -1331 1297 -1286 
Q 1028 -1241 775 -1147 
L 775 -588 
Q 1028 -725 1275 -790 
Q 1522 -856 1778 -856 
Q 2344 -856 2625 -561 
Q 2906 -266 2906 331 
L 2906 616 
Q 2728 306 2450 153 
Q 2172 0 1784 0 
Q 1141 0 747 490 
Q 353 981 353 1791 
Q 353 2603 747 3093 
Q 1141 3584 1784 3584 
Q 2172 3584 2450 3431 
Q 2728 3278 2906 2969 
L 2906 3500 
L 3481 3500 
L 3481 434 
z
" transform="scale(0.015625)"/>
       <path id="DejaVuSans-73" d="M 2834 3397 
L 2834 2853 
Q 2591 2978 2328 3040 
Q 2066 3103 1784 3103 
Q 1356 3103 1142 2972 
Q 928 2841 928 2578 
Q 928 2378 1081 2264 
Q 1234 2150 1697 2047 
L 1894 2003 
Q 2506 1872 2764 1633 
Q 3022 1394 3022 966 
Q 3022 478 2636 193 
Q 2250 -91 1575 -91 
Q 1294 -91 989 -36 
Q 684 19 347 128 
L 347 722 
Q 666 556 975 473 
Q 1284 391 1588 391 
Q 1994 391 2212 530 
Q 2431 669 2431 922 
Q 2431 1156 2273 1281 
Q 2116 1406 1581 1522 
L 1381 1569 
Q 847 1681 609 1914 
Q 372 2147 372 2553 
Q 372 3047 722 3315 
Q 1072 3584 1716 3584 
Q 2034 3584 2315 3537 
Q 2597 3491 2834 3397 
z
" transform="scale(0.015625)"/>
      </defs>
      <use xlink:href="#DejaVuSans-52"/>
      <use xlink:href="#DejaVuSans-65" x="64.982422"/>
      <use xlink:href="#DejaVuSans-6c" x="126.505859"/>
      <use xlink:href="#DejaVuSans-61" x="154.289062"/>
      <use xlink:href="#DejaVuSans-74" x="215.568359"/>
      <use xlink:href="#DejaVuSans-69" x="254.777344"/>
      <use xlink:href="#DejaVuSans-6f" x="282.560547"/>
      <use xlink:href="#DejaVuSans-6e" x="343.742188"/>
      <use xlink:href="#DejaVuSans-20" x="407.121094"/>
      <use xlink:href="#DejaVuSans-6c" x="438.908203"/>
      <use xlink:href="#DejaVuSans-65" x="466.691406"/>
      <use xlink:href="#DejaVuSans-76" x="528.214844"/>
      <use xlink:href="#DejaVuSans-65" x="587.394531"/>
      <use xlink:href="#DejaVuSans-6c" x="648.917969"/>
      <use xlink:href="#DejaVuSans-20" x="676.701172"/>
      <use xlink:href="#DejaVuSans-53" x="708.488281"/>
      <use xlink:href="#DejaVuSans-45" x="771.964844"/>
      <use xlink:href="#DejaVuSans-20" x="835.148438"/>
      <use xlink:href="#DejaVuSans-52" x="866.935547"/>
      <use xlink:href="#DejaVuSans-61" x="934.167969"/>
      <use xlink:href="#DejaVuSans-6e" x="995.447266"/>
      <use xlink:href="#DejaVuSans-67" x="1058.826172"/>
      <use xlink:href="#DejaVuSans-65" x="1122.302734"/>
      <use xlink:href="#DejaVuSans-73" x="1183.826172"/>
     </g>
    </g>
   </g>
   <g id="matplotlib.axis_2">
    <g id="ytick_1">
     <g id="line2d_4">
      <defs>
       <path id="mb00f0e9621" d="M 0 0 
L -3.5 0 
" style="stroke: #000000; stroke-width: 0.8"/>
      </defs>
      <g>
       <use xlink:href="#mb00f0e9621" x="135" y="320.4" style="stroke: #000000; stroke-width: 0.8"/>
      </g>
     </g>
     <g id="text_5">
      <!-- 0 -->
      <g transform="translate(120.365 324.959063)scale(0.12 -0.12)">
       <use xlink:href="#DejaVuSans-30"/>
      </g>
     </g>
    </g>
    <g id="ytick_2">
     <g id="line2d_5">
      <g>
       <use xlink:href="#mb00f0e9621" x="135" y="278.172815" style="stroke: #000000; stroke-width: 0.8"/>
      </g>
     </g>
     <g id="text_6">
      <!-- 100 -->
      <g transform="translate(105.095 282.731878)scale(0.12 -0.12)">
       <defs>
        <path id="DejaVuSans-31" d="M 794 531 
L 1825 531 
L 1825 4091 
L 703 3866 
L 703 4441 
L 1819 4666 
L 2450 4666 
L 2450 531 
L 3481 531 
L 3481 0 
L 794 0 
L 794 531 
z
" transform="scale(0.015625)"/>
       </defs>
       <use xlink:href="#DejaVuSans-31"/>
       <use xlink:href="#DejaVuSans-30" x="63.623047"/>
       <use xlink:href="#DejaVuSans-30" x="127.246094"/>
      </g>
     </g>
    </g>
    <g id="ytick_3">
     <g id="line2d_6">
      <g>
       <use xlink:href="#mb00f0e9621" x="135" y="235.94563" style="stroke: #000000; stroke-width: 0.8"/>
      </g>
     </g>
     <g id="text_7">
      <!-- 200 -->
      <g transform="translate(105.095 240.504693)scale(0.12 -0.12)">
       <defs>
        <path id="DejaVuSans-32" d="M 1228 531 
L 3431 531 
L 3431 0 
L 469 0 
L 469 531 
Q 828 903 1448 1529 
Q 2069 2156 2228 2338 
Q 2531 2678 2651 2914 
Q 2772 3150 2772 3378 
Q 2772 3750 2511 3984 
Q 2250 4219 1831 4219 
Q 1534 4219 1204 4116 
Q 875 4013 500 3803 
L 500 4441 
Q 881 4594 1212 4672 
Q 1544 4750 1819 4750 
Q 2544 4750 2975 4387 
Q 3406 4025 3406 3419 
Q 3406 3131 3298 2873 
Q 3191 2616 2906 2266 
Q 2828 2175 2409 1742 
Q 1991 1309 1228 531 
z
" transform="scale(0.015625)"/>
       </defs>
       <use xlink:href="#DejaVuSans-32"/>
       <use xlink:href="#DejaVuSans-30" x="63.623047"/>
       <use xlink:href="#DejaVuSans-30" x="127.246094"/>
      </g>
     </g>
    </g>
    <g id="ytick_4">
     <g id="line2d_7">
      <g>
       <use xlink:href="#mb00f0e9621" x="135" y="193.718445" style="stroke: #000000; stroke-width: 0.8"/>
      </g>
     </g>
     <g id="text_8">
      <!-- 300 -->
      <g transform="translate(105.095 198.277508)scale(0.12 -0.12)">
       <use xlink:href="#DejaVuSans-33"/>
       <use xlink:href="#DejaVuSans-30" x="63.623047"/>
       <use xlink:href="#DejaVuSans-30" x="127.246094"/>
      </g>
     </g>
    </g>
    <g id="ytick_5">
     <g id="line2d_8">
      <g>
       <use xlink:href="#mb00f0e9621" x="135" y="151.49126" style="stroke: #000000; stroke-width: 0.8"/>
      </g>
     </g>
     <g id="text_9">
      <!-- 400 -->
      <g transform="translate(105.095 156.050323)scale(0.12 -0.12)">
       <use xlink:href="#DejaVuSans-34"/>
       <use xlink:href="#DejaVuSans-30" x="63.623047"/>
       <use xlink:href="#DejaVuSans-30" x="127.246094"/>
      </g>
     </g>
    </g>
    <g id="ytick_6">
     <g id="line2d_9">
      <g>
       <use xlink:href="#mb00f0e9621" x="135" y="109.264075" style="stroke: #000000; stroke-width: 0.8"/>
      </g>
     </g>
     <g id="text_10">
      <!-- 500 -->
      <g transform="translate(105.095 113.823138)scale(0.12 -0.12)">
       <defs>
        <path id="DejaVuSans-35" d="M 691 4666 
L 3169 4666 
L 3169 4134 
L 1269 4134 
L 1269 2991 
Q 1406 3038 1543 3061 
Q 1681 3084 1819 3084 
Q 2600 3084 3056 2656 
Q 3513 2228 3513 1497 
Q 3513 744 3044 326 
Q 2575 -91 1722 -91 
Q 1428 -91 1123 -41 
Q 819 9 494 109 
L 494 744 
Q 775 591 1075 516 
Q 1375 441 1709 441 
Q 2250 441 2565 725 
Q 2881 1009 2881 1497 
Q 2881 1984 2565 2268 
Q 2250 2553 1709 2553 
Q 1456 2553 1204 2497 
Q 953 2441 691 2322 
L 691 4666 
z
" transform="scale(0.015625)"/>
       </defs>
       <use xlink:href="#DejaVuSans-35"/>
       <use xlink:href="#DejaVuSans-30" x="63.623047"/>
       <use xlink:href="#DejaVuSans-30" x="127.246094"/>
      </g>
     </g>
    </g>
    <g id="ytick_7">
     <g id="line2d_10">
      <g>
       <use xlink:href="#mb00f0e9621" x="135" y="67.03689" style="stroke: #000000; stroke-width: 0.8"/>
      </g>
     </g>
     <g id="text_11">
      <!-- 600 -->
      <g transform="translate(105.095 71.595953)scale(0.12 -0.12)">
       <defs>
        <path id="DejaVuSans-36" d="M 2113 2584 
Q 1688 2584 1439 2293 
Q 1191 2003 1191 1497 
Q 1191 994 1439 701 
Q 1688 409 2113 409 
Q 2538 409 2786 701 
Q 3034 994 3034 1497 
Q 3034 2003 2786 2293 
Q 2538 2584 2113 2584 
z
M 3366 4563 
L 3366 3988 
Q 3128 4100 2886 4159 
Q 2644 4219 2406 4219 
Q 1781 4219 1451 3797 
Q 1122 3375 1075 2522 
Q 1259 2794 1537 2939 
Q 1816 3084 2150 3084 
Q 2853 3084 3261 2657 
Q 3669 2231 3669 1497 
Q 3669 778 3244 343 
Q 2819 -91 2113 -91 
Q 1303 -91 875 529 
Q 447 1150 447 2328 
Q 447 3434 972 4092 
Q 1497 4750 2381 4750 
Q 2619 4750 2861 4703 
Q 3103 4656 3366 4563 
z
" transform="scale(0.015625)"/>
       </defs>
       <use xlink:href="#DejaVuSans-36"/>
       <use xlink:href="#DejaVuSans-30" x="63.623047"/>
       <use xlink:href="#DejaVuSans-30" x="127.246094"/>
      </g>
     </g>
    </g>
    <g id="text_12">
     <!-- Mean Rank -->
     <g transform="translate(98.10025 221.691375)rotate(-90)scale(0.144 -0.144)">
      <defs>
       <path id="DejaVuSans-4d" d="M 628 4666 
L 1569 4666 
L 2759 1491 
L 3956 4666 
L 4897 4666 
L 4897 0 
L 4281 0 
L 4281 4097 
L 3078 897 
L 2444 897 
L 1241 4097 
L 1241 0 
L 628 0 
L 628 4666 
z
" transform="scale(0.015625)"/>
       <path id="DejaVuSans-6b" d="M 581 4863 
L 1159 4863 
L 1159 1991 
L 2875 3500 
L 3609 3500 
L 1753 1863 
L 3688 0 
L 2938 0 
L 1159 1709 
L 1159 0 
L 581 0 
L 581 4863 
z
" transform="scale(0.015625)"/>
      </defs>
      <use xlink:href="#DejaVuSans-4d"/>
      <use xlink:href="#DejaVuSans-65" x="86.279297"/>
      <use xlink:href="#DejaVuSans-61" x="147.802734"/>
      <use xlink:href="#DejaVuSans-6e" x="209.082031"/>
      <use xlink:href="#DejaVuSans-20" x="272.460938"/>
      <use xlink:href="#DejaVuSans-52" x="304.248047"/>
      <use xlink:href="#DejaVuSans-61" x="371.480469"/>
      <use xlink:href="#DejaVuSans-6e" x="432.759766"/>
      <use xlink:href="#DejaVuSans-6b" x="496.138672"/>
     </g>
    </g>
   </g>
   <g id="patch_21">
    <path d="M 135 320.4 
L 135 43.2 
" style="fill: none; stroke: #000000; stroke-width: 0.8; stroke-linejoin: miter; stroke-linecap: square"/>
   </g>
   <g id="patch_22">
    <path d="M 381.176471 320.4 
L 381.176471 43.2 
" style="fill: none; stroke: #000000; stroke-width: 0.8; stroke-linejoin: miter; stroke-linecap: square"/>
   </g>
   <g id="patch_23">
    <path d="M 135 320.4 
L 381.176471 320.4 
" style="fill: none; stroke: #000000; stroke-width: 0.8; stroke-linejoin: miter; stroke-linecap: square"/>
   </g>
   <g id="patch_24">
    <path d="M 135 43.2 
L 381.176471 43.2 
" style="fill: none; stroke: #000000; stroke-width: 0.8; stroke-linejoin: miter; stroke-linecap: square"/>
   </g>
   <g id="legend_1">
    <g id="patch_25">
     <path d="M 290.773346 139.26875 
L 374.176471 139.26875 
Q 376.176471 139.26875 376.176471 137.26875 
L 376.176471 50.2 
Q 376.176471 48.2 374.176471 48.2 
L 290.773346 48.2 
Q 288.773346 48.2 288.773346 50.2 
L 288.773346 137.26875 
Q 288.773346 139.26875 290.773346 139.26875 
z
" style="fill: #ffffff; opacity: 0.8; stroke: #cccccc; stroke-linejoin: miter"/>
    </g>
    <g id="patch_26">
     <path d="M 292.773346 59.798437 
L 312.773346 59.798437 
L 312.773346 52.798437 
L 292.773346 52.798437 
z
" style="fill: #1f77b4"/>
    </g>
    <g id="text_13">
     <!-- ConvE -->
     <g transform="translate(320.773346 59.798437)scale(0.1 -0.1)">
      <defs>
       <path id="DejaVuSans-43" d="M 4122 4306 
L 4122 3641 
Q 3803 3938 3442 4084 
Q 3081 4231 2675 4231 
Q 1875 4231 1450 3742 
Q 1025 3253 1025 2328 
Q 1025 1406 1450 917 
Q 1875 428 2675 428 
Q 3081 428 3442 575 
Q 3803 722 4122 1019 
L 4122 359 
Q 3791 134 3420 21 
Q 3050 -91 2638 -91 
Q 1578 -91 968 557 
Q 359 1206 359 2328 
Q 359 3453 968 4101 
Q 1578 4750 2638 4750 
Q 3056 4750 3426 4639 
Q 3797 4528 4122 4306 
z
" transform="scale(0.015625)"/>
      </defs>
      <use xlink:href="#DejaVuSans-43"/>
      <use xlink:href="#DejaVuSans-6f" x="69.824219"/>
      <use xlink:href="#DejaVuSans-6e" x="131.005859"/>
      <use xlink:href="#DejaVuSans-76" x="194.384766"/>
      <use xlink:href="#DejaVuSans-45" x="253.564453"/>
     </g>
    </g>
    <g id="patch_27">
     <path d="M 292.773346 74.476562 
L 312.773346 74.476562 
L 312.773346 67.476562 
L 292.773346 67.476562 
z
" style="fill: #ff7f0e"/>
    </g>
    <g id="text_14">
     <!-- CompGCN -->
     <g transform="translate(320.773346 74.476562)scale(0.1 -0.1)">
      <defs>
       <path id="DejaVuSans-6d" d="M 3328 2828 
Q 3544 3216 3844 3400 
Q 4144 3584 4550 3584 
Q 5097 3584 5394 3201 
Q 5691 2819 5691 2113 
L 5691 0 
L 5113 0 
L 5113 2094 
Q 5113 2597 4934 2840 
Q 4756 3084 4391 3084 
Q 3944 3084 3684 2787 
Q 3425 2491 3425 1978 
L 3425 0 
L 2847 0 
L 2847 2094 
Q 2847 2600 2669 2842 
Q 2491 3084 2119 3084 
Q 1678 3084 1418 2786 
Q 1159 2488 1159 1978 
L 1159 0 
L 581 0 
L 581 3500 
L 1159 3500 
L 1159 2956 
Q 1356 3278 1631 3431 
Q 1906 3584 2284 3584 
Q 2666 3584 2933 3390 
Q 3200 3197 3328 2828 
z
" transform="scale(0.015625)"/>
       <path id="DejaVuSans-70" d="M 1159 525 
L 1159 -1331 
L 581 -1331 
L 581 3500 
L 1159 3500 
L 1159 2969 
Q 1341 3281 1617 3432 
Q 1894 3584 2278 3584 
Q 2916 3584 3314 3078 
Q 3713 2572 3713 1747 
Q 3713 922 3314 415 
Q 2916 -91 2278 -91 
Q 1894 -91 1617 61 
Q 1341 213 1159 525 
z
M 3116 1747 
Q 3116 2381 2855 2742 
Q 2594 3103 2138 3103 
Q 1681 3103 1420 2742 
Q 1159 2381 1159 1747 
Q 1159 1113 1420 752 
Q 1681 391 2138 391 
Q 2594 391 2855 752 
Q 3116 1113 3116 1747 
z
" transform="scale(0.015625)"/>
       <path id="DejaVuSans-47" d="M 3809 666 
L 3809 1919 
L 2778 1919 
L 2778 2438 
L 4434 2438 
L 4434 434 
Q 4069 175 3628 42 
Q 3188 -91 2688 -91 
Q 1594 -91 976 548 
Q 359 1188 359 2328 
Q 359 3472 976 4111 
Q 1594 4750 2688 4750 
Q 3144 4750 3555 4637 
Q 3966 4525 4313 4306 
L 4313 3634 
Q 3963 3931 3569 4081 
Q 3175 4231 2741 4231 
Q 1884 4231 1454 3753 
Q 1025 3275 1025 2328 
Q 1025 1384 1454 906 
Q 1884 428 2741 428 
Q 3075 428 3337 486 
Q 3600 544 3809 666 
z
" transform="scale(0.015625)"/>
       <path id="DejaVuSans-4e" d="M 628 4666 
L 1478 4666 
L 3547 763 
L 3547 4666 
L 4159 4666 
L 4159 0 
L 3309 0 
L 1241 3903 
L 1241 0 
L 628 0 
L 628 4666 
z
" transform="scale(0.015625)"/>
      </defs>
      <use xlink:href="#DejaVuSans-43"/>
      <use xlink:href="#DejaVuSans-6f" x="69.824219"/>
      <use xlink:href="#DejaVuSans-6d" x="131.005859"/>
      <use xlink:href="#DejaVuSans-70" x="228.417969"/>
      <use xlink:href="#DejaVuSans-47" x="291.894531"/>
      <use xlink:href="#DejaVuSans-43" x="369.384766"/>
      <use xlink:href="#DejaVuSans-4e" x="439.208984"/>
     </g>
    </g>
    <g id="patch_28">
     <path d="M 292.773346 89.154687 
L 312.773346 89.154687 
L 312.773346 82.154687 
L 292.773346 82.154687 
z
" style="fill: #2ca02c"/>
    </g>
    <g id="text_15">
     <!-- RotatE -->
     <g transform="translate(320.773346 89.154687)scale(0.1 -0.1)">
      <use xlink:href="#DejaVuSans-52"/>
      <use xlink:href="#DejaVuSans-6f" x="64.982422"/>
      <use xlink:href="#DejaVuSans-74" x="126.164062"/>
      <use xlink:href="#DejaVuSans-61" x="165.373047"/>
      <use xlink:href="#DejaVuSans-74" x="226.652344"/>
      <use xlink:href="#DejaVuSans-45" x="265.861328"/>
     </g>
    </g>
    <g id="patch_29">
     <path d="M 292.773346 103.832812 
L 312.773346 103.832812 
L 312.773346 96.832812 
L 292.773346 96.832812 
z
" style="fill: #d62728"/>
    </g>
    <g id="text_16">
     <!-- TransE -->
     <g transform="translate(320.773346 103.832812)scale(0.1 -0.1)">
      <defs>
       <path id="DejaVuSans-54" d="M -19 4666 
L 3928 4666 
L 3928 4134 
L 2272 4134 
L 2272 0 
L 1638 0 
L 1638 4134 
L -19 4134 
L -19 4666 
z
" transform="scale(0.015625)"/>
       <path id="DejaVuSans-72" d="M 2631 2963 
Q 2534 3019 2420 3045 
Q 2306 3072 2169 3072 
Q 1681 3072 1420 2755 
Q 1159 2438 1159 1844 
L 1159 0 
L 581 0 
L 581 3500 
L 1159 3500 
L 1159 2956 
Q 1341 3275 1631 3429 
Q 1922 3584 2338 3584 
Q 2397 3584 2469 3576 
Q 2541 3569 2628 3553 
L 2631 2963 
z
" transform="scale(0.015625)"/>
      </defs>
      <use xlink:href="#DejaVuSans-54"/>
      <use xlink:href="#DejaVuSans-72" x="46.333984"/>
      <use xlink:href="#DejaVuSans-61" x="87.447266"/>
      <use xlink:href="#DejaVuSans-6e" x="148.726562"/>
      <use xlink:href="#DejaVuSans-73" x="212.105469"/>
      <use xlink:href="#DejaVuSans-45" x="264.205078"/>
     </g>
    </g>
    <g id="patch_30">
     <path d="M 292.773346 118.510937 
L 312.773346 118.510937 
L 312.773346 111.510937 
L 292.773346 111.510937 
z
" style="fill: #9467bd"/>
    </g>
    <g id="text_17">
     <!-- DistMult -->
     <g transform="translate(320.773346 118.510937)scale(0.1 -0.1)">
      <defs>
       <path id="DejaVuSans-44" d="M 1259 4147 
L 1259 519 
L 2022 519 
Q 2988 519 3436 956 
Q 3884 1394 3884 2338 
Q 3884 3275 3436 3711 
Q 2988 4147 2022 4147 
L 1259 4147 
z
M 628 4666 
L 1925 4666 
Q 3281 4666 3915 4102 
Q 4550 3538 4550 2338 
Q 4550 1131 3912 565 
Q 3275 0 1925 0 
L 628 0 
L 628 4666 
z
" transform="scale(0.015625)"/>
       <path id="DejaVuSans-75" d="M 544 1381 
L 544 3500 
L 1119 3500 
L 1119 1403 
Q 1119 906 1312 657 
Q 1506 409 1894 409 
Q 2359 409 2629 706 
Q 2900 1003 2900 1516 
L 2900 3500 
L 3475 3500 
L 3475 0 
L 2900 0 
L 2900 538 
Q 2691 219 2414 64 
Q 2138 -91 1772 -91 
Q 1169 -91 856 284 
Q 544 659 544 1381 
z
M 1991 3584 
L 1991 3584 
z
" transform="scale(0.015625)"/>
      </defs>
      <use xlink:href="#DejaVuSans-44"/>
      <use xlink:href="#DejaVuSans-69" x="77.001953"/>
      <use xlink:href="#DejaVuSans-73" x="104.785156"/>
      <use xlink:href="#DejaVuSans-74" x="156.884766"/>
      <use xlink:href="#DejaVuSans-4d" x="196.09375"/>
      <use xlink:href="#DejaVuSans-75" x="282.373047"/>
      <use xlink:href="#DejaVuSans-6c" x="345.751953"/>
      <use xlink:href="#DejaVuSans-74" x="373.535156"/>
     </g>
    </g>
    <g id="patch_31">
     <path d="M 292.773346 133.189062 
L 312.773346 133.189062 
L 312.773346 126.189062 
L 292.773346 126.189062 
z
" style="fill: #8c564b"/>
    </g>
    <g id="text_18">
     <!-- ComplEx -->
     <g transform="translate(320.773346 133.189062)scale(0.1 -0.1)">
      <defs>
       <path id="DejaVuSans-78" d="M 3513 3500 
L 2247 1797 
L 3578 0 
L 2900 0 
L 1881 1375 
L 863 0 
L 184 0 
L 1544 1831 
L 300 3500 
L 978 3500 
L 1906 2253 
L 2834 3500 
L 3513 3500 
z
" transform="scale(0.015625)"/>
      </defs>
      <use xlink:href="#DejaVuSans-43"/>
      <use xlink:href="#DejaVuSans-6f" x="69.824219"/>
      <use xlink:href="#DejaVuSans-6d" x="131.005859"/>
      <use xlink:href="#DejaVuSans-70" x="228.417969"/>
      <use xlink:href="#DejaVuSans-6c" x="291.894531"/>
      <use xlink:href="#DejaVuSans-45" x="319.677734"/>
      <use xlink:href="#DejaVuSans-78" x="382.861328"/>
     </g>
    </g>
   </g>
  </g>
  <g id="axes_2">
   <g id="patch_32">
    <path d="M 146.18984 320.4 
L 166.535002 320.4 
L 166.535002 320.4 
L 146.18984 320.4 
z
" clip-path="url(#p42a6186f11)" style="fill: #1f77b4"/>
   </g>
   <g id="patch_33">
    <path d="M 247.915654 320.4 
L 268.260817 320.4 
L 268.260817 320.4 
L 247.915654 320.4 
z
" clip-path="url(#p42a6186f11)" style="fill: #1f77b4"/>
   </g>
   <g id="patch_34">
    <path d="M 349.641468 320.4 
L 369.986631 320.4 
L 369.986631 320.4 
L 349.641468 320.4 
z
" clip-path="url(#p42a6186f11)" style="fill: #1f77b4"/>
   </g>
   <g id="matplotlib.axis_3">
    <g id="xtick_4">
     <g id="line2d_11">
      <defs>
       <path id="m3932d7ebb2" d="M 0 0 
L 0 -3.5 
" style="stroke: #000000; stroke-width: 0.8"/>
      </defs>
      <g>
       <use xlink:href="#m3932d7ebb2" x="156.362421" y="43.2" style="stroke: #000000; stroke-width: 0.8"/>
      </g>
     </g>
     <g id="text_19">
      <!-- #:29.6% -->
      <g transform="translate(130.253046 33.704375)scale(0.12 -0.12)">
       <defs>
        <path id="DejaVuSans-23" d="M 3272 2816 
L 2363 2816 
L 2100 1772 
L 3016 1772 
L 3272 2816 
z
M 2803 4594 
L 2478 3297 
L 3391 3297 
L 3719 4594 
L 4219 4594 
L 3897 3297 
L 4872 3297 
L 4872 2816 
L 3775 2816 
L 3519 1772 
L 4513 1772 
L 4513 1294 
L 3397 1294 
L 3072 0 
L 2572 0 
L 2894 1294 
L 1978 1294 
L 1656 0 
L 1153 0 
L 1478 1294 
L 494 1294 
L 494 1772 
L 1594 1772 
L 1856 2816 
L 850 2816 
L 850 3297 
L 1978 3297 
L 2297 4594 
L 2803 4594 
z
" transform="scale(0.015625)"/>
        <path id="DejaVuSans-3a" d="M 750 794 
L 1409 794 
L 1409 0 
L 750 0 
L 750 794 
z
M 750 3309 
L 1409 3309 
L 1409 2516 
L 750 2516 
L 750 3309 
z
" transform="scale(0.015625)"/>
        <path id="DejaVuSans-39" d="M 703 97 
L 703 672 
Q 941 559 1184 500 
Q 1428 441 1663 441 
Q 2288 441 2617 861 
Q 2947 1281 2994 2138 
Q 2813 1869 2534 1725 
Q 2256 1581 1919 1581 
Q 1219 1581 811 2004 
Q 403 2428 403 3163 
Q 403 3881 828 4315 
Q 1253 4750 1959 4750 
Q 2769 4750 3195 4129 
Q 3622 3509 3622 2328 
Q 3622 1225 3098 567 
Q 2575 -91 1691 -91 
Q 1453 -91 1209 -44 
Q 966 3 703 97 
z
M 1959 2075 
Q 2384 2075 2632 2365 
Q 2881 2656 2881 3163 
Q 2881 3666 2632 3958 
Q 2384 4250 1959 4250 
Q 1534 4250 1286 3958 
Q 1038 3666 1038 3163 
Q 1038 2656 1286 2365 
Q 1534 2075 1959 2075 
z
" transform="scale(0.015625)"/>
        <path id="DejaVuSans-2e" d="M 684 794 
L 1344 794 
L 1344 0 
L 684 0 
L 684 794 
z
" transform="scale(0.015625)"/>
        <path id="DejaVuSans-25" d="M 4653 2053 
Q 4381 2053 4226 1822 
Q 4072 1591 4072 1178 
Q 4072 772 4226 539 
Q 4381 306 4653 306 
Q 4919 306 5073 539 
Q 5228 772 5228 1178 
Q 5228 1588 5073 1820 
Q 4919 2053 4653 2053 
z
M 4653 2450 
Q 5147 2450 5437 2106 
Q 5728 1763 5728 1178 
Q 5728 594 5436 251 
Q 5144 -91 4653 -91 
Q 4153 -91 3862 251 
Q 3572 594 3572 1178 
Q 3572 1766 3864 2108 
Q 4156 2450 4653 2450 
z
M 1428 4353 
Q 1159 4353 1004 4120 
Q 850 3888 850 3481 
Q 850 3069 1003 2837 
Q 1156 2606 1428 2606 
Q 1700 2606 1854 2837 
Q 2009 3069 2009 3481 
Q 2009 3884 1853 4118 
Q 1697 4353 1428 4353 
z
M 4250 4750 
L 4750 4750 
L 1831 -91 
L 1331 -91 
L 4250 4750 
z
M 1428 4750 
Q 1922 4750 2215 4408 
Q 2509 4066 2509 3481 
Q 2509 2891 2217 2550 
Q 1925 2209 1428 2209 
Q 931 2209 642 2551 
Q 353 2894 353 3481 
Q 353 4063 643 4406 
Q 934 4750 1428 4750 
z
" transform="scale(0.015625)"/>
       </defs>
       <use xlink:href="#DejaVuSans-23"/>
       <use xlink:href="#DejaVuSans-3a" x="83.789062"/>
       <use xlink:href="#DejaVuSans-32" x="117.480469"/>
       <use xlink:href="#DejaVuSans-39" x="181.103516"/>
       <use xlink:href="#DejaVuSans-2e" x="244.726562"/>
       <use xlink:href="#DejaVuSans-36" x="276.513672"/>
       <use xlink:href="#DejaVuSans-25" x="340.136719"/>
      </g>
     </g>
    </g>
    <g id="xtick_5">
     <g id="line2d_12">
      <g>
       <use xlink:href="#m3932d7ebb2" x="258.088235" y="43.2" style="stroke: #000000; stroke-width: 0.8"/>
      </g>
     </g>
     <g id="text_20">
      <!-- #:38.8% -->
      <g transform="translate(231.97886 33.704375)scale(0.12 -0.12)">
       <defs>
        <path id="DejaVuSans-38" d="M 2034 2216 
Q 1584 2216 1326 1975 
Q 1069 1734 1069 1313 
Q 1069 891 1326 650 
Q 1584 409 2034 409 
Q 2484 409 2743 651 
Q 3003 894 3003 1313 
Q 3003 1734 2745 1975 
Q 2488 2216 2034 2216 
z
M 1403 2484 
Q 997 2584 770 2862 
Q 544 3141 544 3541 
Q 544 4100 942 4425 
Q 1341 4750 2034 4750 
Q 2731 4750 3128 4425 
Q 3525 4100 3525 3541 
Q 3525 3141 3298 2862 
Q 3072 2584 2669 2484 
Q 3125 2378 3379 2068 
Q 3634 1759 3634 1313 
Q 3634 634 3220 271 
Q 2806 -91 2034 -91 
Q 1263 -91 848 271 
Q 434 634 434 1313 
Q 434 1759 690 2068 
Q 947 2378 1403 2484 
z
M 1172 3481 
Q 1172 3119 1398 2916 
Q 1625 2713 2034 2713 
Q 2441 2713 2670 2916 
Q 2900 3119 2900 3481 
Q 2900 3844 2670 4047 
Q 2441 4250 2034 4250 
Q 1625 4250 1398 4047 
Q 1172 3844 1172 3481 
z
" transform="scale(0.015625)"/>
       </defs>
       <use xlink:href="#DejaVuSans-23"/>
       <use xlink:href="#DejaVuSans-3a" x="83.789062"/>
       <use xlink:href="#DejaVuSans-33" x="117.480469"/>
       <use xlink:href="#DejaVuSans-38" x="181.103516"/>
       <use xlink:href="#DejaVuSans-2e" x="244.726562"/>
       <use xlink:href="#DejaVuSans-38" x="276.513672"/>
       <use xlink:href="#DejaVuSans-25" x="340.136719"/>
      </g>
     </g>
    </g>
    <g id="xtick_6">
     <g id="line2d_13">
      <g>
       <use xlink:href="#m3932d7ebb2" x="359.81405" y="43.2" style="stroke: #000000; stroke-width: 0.8"/>
      </g>
     </g>
     <g id="text_21">
      <!-- #:31.7% -->
      <g transform="translate(333.704675 33.704375)scale(0.12 -0.12)">
       <defs>
        <path id="DejaVuSans-37" d="M 525 4666 
L 3525 4666 
L 3525 4397 
L 1831 0 
L 1172 0 
L 2766 4134 
L 525 4134 
L 525 4666 
z
" transform="scale(0.015625)"/>
       </defs>
       <use xlink:href="#DejaVuSans-23"/>
       <use xlink:href="#DejaVuSans-3a" x="83.789062"/>
       <use xlink:href="#DejaVuSans-33" x="117.480469"/>
       <use xlink:href="#DejaVuSans-31" x="181.103516"/>
       <use xlink:href="#DejaVuSans-2e" x="244.726562"/>
       <use xlink:href="#DejaVuSans-37" x="276.513672"/>
       <use xlink:href="#DejaVuSans-25" x="340.136719"/>
      </g>
     </g>
    </g>
   </g>
   <g id="patch_35">
    <path d="M 135 320.4 
L 135 43.2 
" style="fill: none; stroke: #000000; stroke-width: 0.8; stroke-linejoin: miter; stroke-linecap: square"/>
   </g>
   <g id="patch_36">
    <path d="M 381.176471 320.4 
L 381.176471 43.2 
" style="fill: none; stroke: #000000; stroke-width: 0.8; stroke-linejoin: miter; stroke-linecap: square"/>
   </g>
   <g id="patch_37">
    <path d="M 135 320.4 
L 381.176471 320.4 
" style="fill: none; stroke: #000000; stroke-width: 0.8; stroke-linejoin: miter; stroke-linecap: square"/>
   </g>
   <g id="patch_38">
    <path d="M 135 43.2 
L 381.176471 43.2 
" style="fill: none; stroke: #000000; stroke-width: 0.8; stroke-linejoin: miter; stroke-linecap: square"/>
   </g>
  </g>
  <g id="axes_3">
   <g id="patch_39">
    <path d="M 430.411765 320.4 
L 676.588235 320.4 
L 676.588235 43.2 
L 430.411765 43.2 
z
" style="fill: #ffffff"/>
   </g>
   <g id="patch_40">
    <path d="M 441.601604 320.4 
L 453.1773 320.4 
L 453.1773 181.716453 
L 441.601604 181.716453 
z
" clip-path="url(#p30064e8dd3)" style="fill: #1f77b4"/>
   </g>
   <g id="patch_41">
    <path d="M 518.772912 320.4 
L 530.348608 320.4 
L 530.348608 271.543245 
L 518.772912 271.543245 
z
" clip-path="url(#p30064e8dd3)" style="fill: #1f77b4"/>
   </g>
   <g id="patch_42">
    <path d="M 595.944219 320.4 
L 607.519915 320.4 
L 607.519915 307.924507 
L 595.944219 307.924507 
z
" clip-path="url(#p30064e8dd3)" style="fill: #1f77b4"/>
   </g>
   <g id="patch_43">
    <path d="M 453.1773 320.4 
L 464.752996 320.4 
L 464.752996 188.549039 
L 453.1773 188.549039 
z
" clip-path="url(#p30064e8dd3)" style="fill: #ff7f0e"/>
   </g>
   <g id="patch_44">
    <path d="M 530.348608 320.4 
L 541.924304 320.4 
L 541.924304 282.072728 
L 530.348608 282.072728 
z
" clip-path="url(#p30064e8dd3)" style="fill: #ff7f0e"/>
   </g>
   <g id="patch_45">
    <path d="M 607.519915 320.4 
L 619.095611 320.4 
L 619.095611 311.098516 
L 607.519915 311.098516 
z
" clip-path="url(#p30064e8dd3)" style="fill: #ff7f0e"/>
   </g>
   <g id="patch_46">
    <path d="M 464.752996 320.4 
L 476.328693 320.4 
L 476.328693 212.720565 
L 464.752996 212.720565 
z
" clip-path="url(#p30064e8dd3)" style="fill: #2ca02c"/>
   </g>
   <g id="patch_47">
    <path d="M 541.924304 320.4 
L 553.5 320.4 
L 553.5 293.929495 
L 541.924304 293.929495 
z
" clip-path="url(#p30064e8dd3)" style="fill: #2ca02c"/>
   </g>
   <g id="patch_48">
    <path d="M 619.095611 320.4 
L 630.671307 320.4 
L 630.671307 312.892435 
L 619.095611 312.892435 
z
" clip-path="url(#p30064e8dd3)" style="fill: #2ca02c"/>
   </g>
   <g id="patch_49">
    <path d="M 476.328693 320.4 
L 487.904389 320.4 
L 487.904389 214.748048 
L 476.328693 214.748048 
z
" clip-path="url(#p30064e8dd3)" style="fill: #d62728"/>
   </g>
   <g id="patch_50">
    <path d="M 553.5 320.4 
L 565.075696 320.4 
L 565.075696 295.902131 
L 553.5 295.902131 
z
" clip-path="url(#p30064e8dd3)" style="fill: #d62728"/>
   </g>
   <g id="patch_51">
    <path d="M 630.671307 320.4 
L 642.247004 320.4 
L 642.247004 312.95369 
L 630.671307 312.95369 
z
" clip-path="url(#p30064e8dd3)" style="fill: #d62728"/>
   </g>
   <g id="patch_52">
    <path d="M 487.904389 320.4 
L 499.480085 320.4 
L 499.480085 217.965255 
L 487.904389 217.965255 
z
" clip-path="url(#p30064e8dd3)" style="fill: #9467bd"/>
   </g>
   <g id="patch_53">
    <path d="M 565.075696 320.4 
L 576.651392 320.4 
L 576.651392 288.700312 
L 565.075696 288.700312 
z
" clip-path="url(#p30064e8dd3)" style="fill: #9467bd"/>
   </g>
   <g id="patch_54">
    <path d="M 642.247004 320.4 
L 653.8227 320.4 
L 653.8227 309.86434 
L 642.247004 309.86434 
z
" clip-path="url(#p30064e8dd3)" style="fill: #9467bd"/>
   </g>
   <g id="patch_55">
    <path d="M 499.480085 320.4 
L 511.055781 320.4 
L 511.055781 222.365546 
L 499.480085 222.365546 
z
" clip-path="url(#p30064e8dd3)" style="fill: #8c564b"/>
   </g>
   <g id="patch_56">
    <path d="M 576.651392 320.4 
L 588.227088 320.4 
L 588.227088 288.652882 
L 576.651392 288.652882 
z
" clip-path="url(#p30064e8dd3)" style="fill: #8c564b"/>
   </g>
   <g id="patch_57">
    <path d="M 653.8227 320.4 
L 665.398396 320.4 
L 665.398396 309.552056 
L 653.8227 309.552056 
z
" clip-path="url(#p30064e8dd3)" style="fill: #8c564b"/>
   </g>
   <g id="matplotlib.axis_4">
    <g id="xtick_7">
     <g id="line2d_14">
      <g>
       <use xlink:href="#me5581c05e3" x="476.328693" y="320.4" style="stroke: #000000; stroke-width: 0.8"/>
      </g>
     </g>
     <g id="text_22">
      <!-- [0, 1) -->
      <g transform="translate(460.198068 336.518125)scale(0.12 -0.12)">
       <use xlink:href="#DejaVuSans-5b"/>
       <use xlink:href="#DejaVuSans-30" x="39.013672"/>
       <use xlink:href="#DejaVuSans-2c" x="102.636719"/>
       <use xlink:href="#DejaVuSans-20" x="134.423828"/>
       <use xlink:href="#DejaVuSans-31" x="166.210938"/>
       <use xlink:href="#DejaVuSans-29" x="229.833984"/>
      </g>
     </g>
    </g>
    <g id="xtick_8">
     <g id="line2d_15">
      <g>
       <use xlink:href="#me5581c05e3" x="553.5" y="320.4" style="stroke: #000000; stroke-width: 0.8"/>
      </g>
     </g>
     <g id="text_23">
      <!-- [1, 3) -->
      <g transform="translate(537.369375 336.518125)scale(0.12 -0.12)">
       <use xlink:href="#DejaVuSans-5b"/>
       <use xlink:href="#DejaVuSans-31" x="39.013672"/>
       <use xlink:href="#DejaVuSans-2c" x="102.636719"/>
       <use xlink:href="#DejaVuSans-20" x="134.423828"/>
       <use xlink:href="#DejaVuSans-33" x="166.210938"/>
       <use xlink:href="#DejaVuSans-29" x="229.833984"/>
      </g>
     </g>
    </g>
    <g id="xtick_9">
     <g id="line2d_16">
      <g>
       <use xlink:href="#me5581c05e3" x="630.671307" y="320.4" style="stroke: #000000; stroke-width: 0.8"/>
      </g>
     </g>
     <g id="text_24">
      <!-- [3, +∞) -->
      <g transform="translate(608.332557 336.518125)scale(0.12 -0.12)">
       <use xlink:href="#DejaVuSans-5b"/>
       <use xlink:href="#DejaVuSans-33" x="39.013672"/>
       <use xlink:href="#DejaVuSans-2c" x="102.636719"/>
       <use xlink:href="#DejaVuSans-20" x="134.423828"/>
       <use xlink:href="#DejaVuSans-2b" x="166.210938"/>
       <use xlink:href="#DejaVuSans-221e" x="250"/>
       <use xlink:href="#DejaVuSans-29" x="333.300781"/>
      </g>
     </g>
    </g>
    <g id="text_25">
     <!-- Entity level SE Ranges -->
     <g transform="translate(472.804875 353.9555)scale(0.144 -0.144)">
      <defs>
       <path id="DejaVuSans-79" d="M 2059 -325 
Q 1816 -950 1584 -1140 
Q 1353 -1331 966 -1331 
L 506 -1331 
L 506 -850 
L 844 -850 
Q 1081 -850 1212 -737 
Q 1344 -625 1503 -206 
L 1606 56 
L 191 3500 
L 800 3500 
L 1894 763 
L 2988 3500 
L 3597 3500 
L 2059 -325 
z
" transform="scale(0.015625)"/>
      </defs>
      <use xlink:href="#DejaVuSans-45"/>
      <use xlink:href="#DejaVuSans-6e" x="63.183594"/>
      <use xlink:href="#DejaVuSans-74" x="126.5625"/>
      <use xlink:href="#DejaVuSans-69" x="165.771484"/>
      <use xlink:href="#DejaVuSans-74" x="193.554688"/>
      <use xlink:href="#DejaVuSans-79" x="232.763672"/>
      <use xlink:href="#DejaVuSans-20" x="291.943359"/>
      <use xlink:href="#DejaVuSans-6c" x="323.730469"/>
      <use xlink:href="#DejaVuSans-65" x="351.513672"/>
      <use xlink:href="#DejaVuSans-76" x="413.037109"/>
      <use xlink:href="#DejaVuSans-65" x="472.216797"/>
      <use xlink:href="#DejaVuSans-6c" x="533.740234"/>
      <use xlink:href="#DejaVuSans-20" x="561.523438"/>
      <use xlink:href="#DejaVuSans-53" x="593.310547"/>
      <use xlink:href="#DejaVuSans-45" x="656.787109"/>
      <use xlink:href="#DejaVuSans-20" x="719.970703"/>
      <use xlink:href="#DejaVuSans-52" x="751.757812"/>
      <use xlink:href="#DejaVuSans-61" x="818.990234"/>
      <use xlink:href="#DejaVuSans-6e" x="880.269531"/>
      <use xlink:href="#DejaVuSans-67" x="943.648438"/>
      <use xlink:href="#DejaVuSans-65" x="1007.125"/>
      <use xlink:href="#DejaVuSans-73" x="1068.648438"/>
     </g>
    </g>
   </g>
   <g id="matplotlib.axis_5">
    <g id="ytick_8">
     <g id="line2d_17">
      <g>
       <use xlink:href="#mb00f0e9621" x="430.411765" y="320.4" style="stroke: #000000; stroke-width: 0.8"/>
      </g>
     </g>
     <g id="text_26">
      <!-- 0 -->
      <g transform="translate(415.776765 324.959063)scale(0.12 -0.12)">
       <use xlink:href="#DejaVuSans-30"/>
      </g>
     </g>
    </g>
    <g id="ytick_9">
     <g id="line2d_18">
      <g>
       <use xlink:href="#mb00f0e9621" x="430.411765" y="278.172815" style="stroke: #000000; stroke-width: 0.8"/>
      </g>
     </g>
     <g id="text_27">
      <!-- 100 -->
      <g transform="translate(400.506765 282.731878)scale(0.12 -0.12)">
       <use xlink:href="#DejaVuSans-31"/>
       <use xlink:href="#DejaVuSans-30" x="63.623047"/>
       <use xlink:href="#DejaVuSans-30" x="127.246094"/>
      </g>
     </g>
    </g>
    <g id="ytick_10">
     <g id="line2d_19">
      <g>
       <use xlink:href="#mb00f0e9621" x="430.411765" y="235.94563" style="stroke: #000000; stroke-width: 0.8"/>
      </g>
     </g>
     <g id="text_28">
      <!-- 200 -->
      <g transform="translate(400.506765 240.504693)scale(0.12 -0.12)">
       <use xlink:href="#DejaVuSans-32"/>
       <use xlink:href="#DejaVuSans-30" x="63.623047"/>
       <use xlink:href="#DejaVuSans-30" x="127.246094"/>
      </g>
     </g>
    </g>
    <g id="ytick_11">
     <g id="line2d_20">
      <g>
       <use xlink:href="#mb00f0e9621" x="430.411765" y="193.718445" style="stroke: #000000; stroke-width: 0.8"/>
      </g>
     </g>
     <g id="text_29">
      <!-- 300 -->
      <g transform="translate(400.506765 198.277508)scale(0.12 -0.12)">
       <use xlink:href="#DejaVuSans-33"/>
       <use xlink:href="#DejaVuSans-30" x="63.623047"/>
       <use xlink:href="#DejaVuSans-30" x="127.246094"/>
      </g>
     </g>
    </g>
    <g id="ytick_12">
     <g id="line2d_21">
      <g>
       <use xlink:href="#mb00f0e9621" x="430.411765" y="151.49126" style="stroke: #000000; stroke-width: 0.8"/>
      </g>
     </g>
     <g id="text_30">
      <!-- 400 -->
      <g transform="translate(400.506765 156.050323)scale(0.12 -0.12)">
       <use xlink:href="#DejaVuSans-34"/>
       <use xlink:href="#DejaVuSans-30" x="63.623047"/>
       <use xlink:href="#DejaVuSans-30" x="127.246094"/>
      </g>
     </g>
    </g>
    <g id="ytick_13">
     <g id="line2d_22">
      <g>
       <use xlink:href="#mb00f0e9621" x="430.411765" y="109.264075" style="stroke: #000000; stroke-width: 0.8"/>
      </g>
     </g>
     <g id="text_31">
      <!-- 500 -->
      <g transform="translate(400.506765 113.823138)scale(0.12 -0.12)">
       <use xlink:href="#DejaVuSans-35"/>
       <use xlink:href="#DejaVuSans-30" x="63.623047"/>
       <use xlink:href="#DejaVuSans-30" x="127.246094"/>
      </g>
     </g>
    </g>
    <g id="ytick_14">
     <g id="line2d_23">
      <g>
       <use xlink:href="#mb00f0e9621" x="430.411765" y="67.03689" style="stroke: #000000; stroke-width: 0.8"/>
      </g>
     </g>
     <g id="text_32">
      <!-- 600 -->
      <g transform="translate(400.506765 71.595953)scale(0.12 -0.12)">
       <use xlink:href="#DejaVuSans-36"/>
       <use xlink:href="#DejaVuSans-30" x="63.623047"/>
       <use xlink:href="#DejaVuSans-30" x="127.246094"/>
      </g>
     </g>
    </g>
   </g>
   <g id="patch_58">
    <path d="M 430.411765 320.4 
L 430.411765 43.2 
" style="fill: none; stroke: #000000; stroke-width: 0.8; stroke-linejoin: miter; stroke-linecap: square"/>
   </g>
   <g id="patch_59">
    <path d="M 676.588235 320.4 
L 676.588235 43.2 
" style="fill: none; stroke: #000000; stroke-width: 0.8; stroke-linejoin: miter; stroke-linecap: square"/>
   </g>
   <g id="patch_60">
    <path d="M 430.411765 320.4 
L 676.588235 320.4 
" style="fill: none; stroke: #000000; stroke-width: 0.8; stroke-linejoin: miter; stroke-linecap: square"/>
   </g>
   <g id="patch_61">
    <path d="M 430.411765 43.2 
L 676.588235 43.2 
" style="fill: none; stroke: #000000; stroke-width: 0.8; stroke-linejoin: miter; stroke-linecap: square"/>
   </g>
   <g id="legend_2">
    <g id="patch_62">
     <path d="M 586.18511 139.26875 
L 669.588235 139.26875 
Q 671.588235 139.26875 671.588235 137.26875 
L 671.588235 50.2 
Q 671.588235 48.2 669.588235 48.2 
L 586.18511 48.2 
Q 584.18511 48.2 584.18511 50.2 
L 584.18511 137.26875 
Q 584.18511 139.26875 586.18511 139.26875 
z
" style="fill: #ffffff; opacity: 0.8; stroke: #cccccc; stroke-linejoin: miter"/>
    </g>
    <g id="patch_63">
     <path d="M 588.18511 59.798437 
L 608.18511 59.798437 
L 608.18511 52.798437 
L 588.18511 52.798437 
z
" style="fill: #1f77b4"/>
    </g>
    <g id="text_33">
     <!-- ConvE -->
     <g transform="translate(616.18511 59.798437)scale(0.1 -0.1)">
      <use xlink:href="#DejaVuSans-43"/>
      <use xlink:href="#DejaVuSans-6f" x="69.824219"/>
      <use xlink:href="#DejaVuSans-6e" x="131.005859"/>
      <use xlink:href="#DejaVuSans-76" x="194.384766"/>
      <use xlink:href="#DejaVuSans-45" x="253.564453"/>
     </g>
    </g>
    <g id="patch_64">
     <path d="M 588.18511 74.476562 
L 608.18511 74.476562 
L 608.18511 67.476562 
L 588.18511 67.476562 
z
" style="fill: #ff7f0e"/>
    </g>
    <g id="text_34">
     <!-- CompGCN -->
     <g transform="translate(616.18511 74.476562)scale(0.1 -0.1)">
      <use xlink:href="#DejaVuSans-43"/>
      <use xlink:href="#DejaVuSans-6f" x="69.824219"/>
      <use xlink:href="#DejaVuSans-6d" x="131.005859"/>
      <use xlink:href="#DejaVuSans-70" x="228.417969"/>
      <use xlink:href="#DejaVuSans-47" x="291.894531"/>
      <use xlink:href="#DejaVuSans-43" x="369.384766"/>
      <use xlink:href="#DejaVuSans-4e" x="439.208984"/>
     </g>
    </g>
    <g id="patch_65">
     <path d="M 588.18511 89.154687 
L 608.18511 89.154687 
L 608.18511 82.154687 
L 588.18511 82.154687 
z
" style="fill: #2ca02c"/>
    </g>
    <g id="text_35">
     <!-- RotatE -->
     <g transform="translate(616.18511 89.154687)scale(0.1 -0.1)">
      <use xlink:href="#DejaVuSans-52"/>
      <use xlink:href="#DejaVuSans-6f" x="64.982422"/>
      <use xlink:href="#DejaVuSans-74" x="126.164062"/>
      <use xlink:href="#DejaVuSans-61" x="165.373047"/>
      <use xlink:href="#DejaVuSans-74" x="226.652344"/>
      <use xlink:href="#DejaVuSans-45" x="265.861328"/>
     </g>
    </g>
    <g id="patch_66">
     <path d="M 588.18511 103.832812 
L 608.18511 103.832812 
L 608.18511 96.832812 
L 588.18511 96.832812 
z
" style="fill: #d62728"/>
    </g>
    <g id="text_36">
     <!-- TransE -->
     <g transform="translate(616.18511 103.832812)scale(0.1 -0.1)">
      <use xlink:href="#DejaVuSans-54"/>
      <use xlink:href="#DejaVuSans-72" x="46.333984"/>
      <use xlink:href="#DejaVuSans-61" x="87.447266"/>
      <use xlink:href="#DejaVuSans-6e" x="148.726562"/>
      <use xlink:href="#DejaVuSans-73" x="212.105469"/>
      <use xlink:href="#DejaVuSans-45" x="264.205078"/>
     </g>
    </g>
    <g id="patch_67">
     <path d="M 588.18511 118.510937 
L 608.18511 118.510937 
L 608.18511 111.510937 
L 588.18511 111.510937 
z
" style="fill: #9467bd"/>
    </g>
    <g id="text_37">
     <!-- DistMult -->
     <g transform="translate(616.18511 118.510937)scale(0.1 -0.1)">
      <use xlink:href="#DejaVuSans-44"/>
      <use xlink:href="#DejaVuSans-69" x="77.001953"/>
      <use xlink:href="#DejaVuSans-73" x="104.785156"/>
      <use xlink:href="#DejaVuSans-74" x="156.884766"/>
      <use xlink:href="#DejaVuSans-4d" x="196.09375"/>
      <use xlink:href="#DejaVuSans-75" x="282.373047"/>
      <use xlink:href="#DejaVuSans-6c" x="345.751953"/>
      <use xlink:href="#DejaVuSans-74" x="373.535156"/>
     </g>
    </g>
    <g id="patch_68">
     <path d="M 588.18511 133.189062 
L 608.18511 133.189062 
L 608.18511 126.189062 
L 588.18511 126.189062 
z
" style="fill: #8c564b"/>
    </g>
    <g id="text_38">
     <!-- ComplEx -->
     <g transform="translate(616.18511 133.189062)scale(0.1 -0.1)">
      <use xlink:href="#DejaVuSans-43"/>
      <use xlink:href="#DejaVuSans-6f" x="69.824219"/>
      <use xlink:href="#DejaVuSans-6d" x="131.005859"/>
      <use xlink:href="#DejaVuSans-70" x="228.417969"/>
      <use xlink:href="#DejaVuSans-6c" x="291.894531"/>
      <use xlink:href="#DejaVuSans-45" x="319.677734"/>
      <use xlink:href="#DejaVuSans-78" x="382.861328"/>
     </g>
    </g>
   </g>
  </g>
  <g id="axes_4">
   <g id="patch_69">
    <path d="M 441.601604 320.4 
L 461.946767 320.4 
L 461.946767 320.4 
L 441.601604 320.4 
z
" clip-path="url(#p30064e8dd3)" style="fill: #1f77b4"/>
   </g>
   <g id="patch_70">
    <path d="M 543.327419 320.4 
L 563.672581 320.4 
L 563.672581 320.4 
L 543.327419 320.4 
z
" clip-path="url(#p30064e8dd3)" style="fill: #1f77b4"/>
   </g>
   <g id="patch_71">
    <path d="M 645.053233 320.4 
L 665.398396 320.4 
L 665.398396 320.4 
L 645.053233 320.4 
z
" clip-path="url(#p30064e8dd3)" style="fill: #1f77b4"/>
   </g>
   <g id="matplotlib.axis_6">
    <g id="xtick_10">
     <g id="line2d_24">
      <g>
       <use xlink:href="#m3932d7ebb2" x="451.774186" y="43.2" style="stroke: #000000; stroke-width: 0.8"/>
      </g>
     </g>
     <g id="text_39">
      <!-- #:63.9% -->
      <g transform="translate(425.664811 33.704375)scale(0.12 -0.12)">
       <use xlink:href="#DejaVuSans-23"/>
       <use xlink:href="#DejaVuSans-3a" x="83.789062"/>
       <use xlink:href="#DejaVuSans-36" x="117.480469"/>
       <use xlink:href="#DejaVuSans-33" x="181.103516"/>
       <use xlink:href="#DejaVuSans-2e" x="244.726562"/>
       <use xlink:href="#DejaVuSans-39" x="276.513672"/>
       <use xlink:href="#DejaVuSans-25" x="340.136719"/>
      </g>
     </g>
    </g>
    <g id="xtick_11">
     <g id="line2d_25">
      <g>
       <use xlink:href="#m3932d7ebb2" x="553.5" y="43.2" style="stroke: #000000; stroke-width: 0.8"/>
      </g>
     </g>
     <g id="text_40">
      <!-- #:17.9% -->
      <g transform="translate(527.390625 33.704375)scale(0.12 -0.12)">
       <use xlink:href="#DejaVuSans-23"/>
       <use xlink:href="#DejaVuSans-3a" x="83.789062"/>
       <use xlink:href="#DejaVuSans-31" x="117.480469"/>
       <use xlink:href="#DejaVuSans-37" x="181.103516"/>
       <use xlink:href="#DejaVuSans-2e" x="244.726562"/>
       <use xlink:href="#DejaVuSans-39" x="276.513672"/>
       <use xlink:href="#DejaVuSans-25" x="340.136719"/>
      </g>
     </g>
    </g>
    <g id="xtick_12">
     <g id="line2d_26">
      <g>
       <use xlink:href="#m3932d7ebb2" x="655.225814" y="43.2" style="stroke: #000000; stroke-width: 0.8"/>
      </g>
     </g>
     <g id="text_41">
      <!-- #:18.2% -->
      <g transform="translate(629.116439 33.704375)scale(0.12 -0.12)">
       <use xlink:href="#DejaVuSans-23"/>
       <use xlink:href="#DejaVuSans-3a" x="83.789062"/>
       <use xlink:href="#DejaVuSans-31" x="117.480469"/>
       <use xlink:href="#DejaVuSans-38" x="181.103516"/>
       <use xlink:href="#DejaVuSans-2e" x="244.726562"/>
       <use xlink:href="#DejaVuSans-32" x="276.513672"/>
       <use xlink:href="#DejaVuSans-25" x="340.136719"/>
      </g>
     </g>
    </g>
   </g>
   <g id="patch_72">
    <path d="M 430.411765 320.4 
L 430.411765 43.2 
" style="fill: none; stroke: #000000; stroke-width: 0.8; stroke-linejoin: miter; stroke-linecap: square"/>
   </g>
   <g id="patch_73">
    <path d="M 676.588235 320.4 
L 676.588235 43.2 
" style="fill: none; stroke: #000000; stroke-width: 0.8; stroke-linejoin: miter; stroke-linecap: square"/>
   </g>
   <g id="patch_74">
    <path d="M 430.411765 320.4 
L 676.588235 320.4 
" style="fill: none; stroke: #000000; stroke-width: 0.8; stroke-linejoin: miter; stroke-linecap: square"/>
   </g>
   <g id="patch_75">
    <path d="M 430.411765 43.2 
L 676.588235 43.2 
" style="fill: none; stroke: #000000; stroke-width: 0.8; stroke-linejoin: miter; stroke-linecap: square"/>
   </g>
  </g>
  <g id="axes_5">
   <g id="patch_76">
    <path d="M 725.823529 320.4 
L 972 320.4 
L 972 43.2 
L 725.823529 43.2 
z
" style="fill: #ffffff"/>
   </g>
   <g id="patch_77">
    <path d="M 737.013369 320.4 
L 748.589065 320.4 
L 748.589065 137.094585 
L 737.013369 137.094585 
z
" clip-path="url(#pa664f09518)" style="fill: #1f77b4"/>
   </g>
   <g id="patch_78">
    <path d="M 814.184676 320.4 
L 825.760372 320.4 
L 825.760372 238.846623 
L 814.184676 238.846623 
z
" clip-path="url(#pa664f09518)" style="fill: #1f77b4"/>
   </g>
   <g id="patch_79">
    <path d="M 891.355984 320.4 
L 902.93168 320.4 
L 902.93168 294.146165 
L 891.355984 294.146165 
z
" clip-path="url(#pa664f09518)" style="fill: #1f77b4"/>
   </g>
   <g id="patch_80">
    <path d="M 748.589065 320.4 
L 760.164761 320.4 
L 760.164761 153.345026 
L 748.589065 153.345026 
z
" clip-path="url(#pa664f09518)" style="fill: #ff7f0e"/>
   </g>
   <g id="patch_81">
    <path d="M 825.760372 320.4 
L 837.336069 320.4 
L 837.336069 236.69113 
L 825.760372 236.69113 
z
" clip-path="url(#pa664f09518)" style="fill: #ff7f0e"/>
   </g>
   <g id="patch_82">
    <path d="M 902.93168 320.4 
L 914.507376 320.4 
L 914.507376 300.129249 
L 902.93168 300.129249 
z
" clip-path="url(#pa664f09518)" style="fill: #ff7f0e"/>
   </g>
   <g id="patch_83">
    <path d="M 760.164761 320.4 
L 771.740457 320.4 
L 771.740457 180.865082 
L 760.164761 180.865082 
z
" clip-path="url(#pa664f09518)" style="fill: #2ca02c"/>
   </g>
   <g id="patch_84">
    <path d="M 837.336069 320.4 
L 848.911765 320.4 
L 848.911765 256.98781 
L 837.336069 256.98781 
z
" clip-path="url(#pa664f09518)" style="fill: #2ca02c"/>
   </g>
   <g id="patch_85">
    <path d="M 914.507376 320.4 
L 926.083072 320.4 
L 926.083072 304.801076 
L 914.507376 304.801076 
z
" clip-path="url(#pa664f09518)" style="fill: #2ca02c"/>
   </g>
   <g id="patch_86">
    <path d="M 771.740457 320.4 
L 783.316153 320.4 
L 783.316153 187.22945 
L 771.740457 187.22945 
z
" clip-path="url(#pa664f09518)" style="fill: #d62728"/>
   </g>
   <g id="patch_87">
    <path d="M 848.911765 320.4 
L 860.487461 320.4 
L 860.487461 255.862376 
L 848.911765 255.862376 
z
" clip-path="url(#pa664f09518)" style="fill: #d62728"/>
   </g>
   <g id="patch_88">
    <path d="M 926.083072 320.4 
L 937.658768 320.4 
L 937.658768 304.224629 
L 926.083072 304.224629 
z
" clip-path="url(#pa664f09518)" style="fill: #d62728"/>
   </g>
   <g id="patch_89">
    <path d="M 783.316153 320.4 
L 794.89185 320.4 
L 794.89185 187.569871 
L 783.316153 187.569871 
z
" clip-path="url(#pa664f09518)" style="fill: #9467bd"/>
   </g>
   <g id="patch_90">
    <path d="M 860.487461 320.4 
L 872.063157 320.4 
L 872.063157 254.649504 
L 860.487461 254.649504 
z
" clip-path="url(#pa664f09518)" style="fill: #9467bd"/>
   </g>
   <g id="patch_91">
    <path d="M 937.658768 320.4 
L 949.234464 320.4 
L 949.234464 305.780748 
L 937.658768 305.780748 
z
" clip-path="url(#pa664f09518)" style="fill: #9467bd"/>
   </g>
   <g id="patch_92">
    <path d="M 794.89185 320.4 
L 806.467546 320.4 
L 806.467546 184.103663 
L 794.89185 184.103663 
z
" clip-path="url(#pa664f09518)" style="fill: #8c564b"/>
   </g>
   <g id="patch_93">
    <path d="M 872.063157 320.4 
L 883.638853 320.4 
L 883.638853 264.842699 
L 872.063157 264.842699 
z
" clip-path="url(#pa664f09518)" style="fill: #8c564b"/>
   </g>
   <g id="patch_94">
    <path d="M 949.234464 320.4 
L 960.81016 320.4 
L 960.81016 307.458577 
L 949.234464 307.458577 
z
" clip-path="url(#pa664f09518)" style="fill: #8c564b"/>
   </g>
   <g id="matplotlib.axis_7">
    <g id="xtick_13">
     <g id="line2d_27">
      <g>
       <use xlink:href="#me5581c05e3" x="771.740457" y="320.4" style="stroke: #000000; stroke-width: 0.8"/>
      </g>
     </g>
     <g id="text_42">
      <!-- [0, 4) -->
      <g transform="translate(755.609832 336.518125)scale(0.12 -0.12)">
       <use xlink:href="#DejaVuSans-5b"/>
       <use xlink:href="#DejaVuSans-30" x="39.013672"/>
       <use xlink:href="#DejaVuSans-2c" x="102.636719"/>
       <use xlink:href="#DejaVuSans-20" x="134.423828"/>
       <use xlink:href="#DejaVuSans-34" x="166.210938"/>
       <use xlink:href="#DejaVuSans-29" x="229.833984"/>
      </g>
     </g>
    </g>
    <g id="xtick_14">
     <g id="line2d_28">
      <g>
       <use xlink:href="#me5581c05e3" x="848.911765" y="320.4" style="stroke: #000000; stroke-width: 0.8"/>
      </g>
     </g>
     <g id="text_43">
      <!-- [4, 50) -->
      <g transform="translate(828.96364 336.518125)scale(0.12 -0.12)">
       <use xlink:href="#DejaVuSans-5b"/>
       <use xlink:href="#DejaVuSans-34" x="39.013672"/>
       <use xlink:href="#DejaVuSans-2c" x="102.636719"/>
       <use xlink:href="#DejaVuSans-20" x="134.423828"/>
       <use xlink:href="#DejaVuSans-35" x="166.210938"/>
       <use xlink:href="#DejaVuSans-30" x="229.833984"/>
       <use xlink:href="#DejaVuSans-29" x="293.457031"/>
      </g>
     </g>
    </g>
    <g id="xtick_15">
     <g id="line2d_29">
      <g>
       <use xlink:href="#me5581c05e3" x="926.083072" y="320.4" style="stroke: #000000; stroke-width: 0.8"/>
      </g>
     </g>
     <g id="text_44">
      <!-- [50, +∞) -->
      <g transform="translate(899.926822 336.518125)scale(0.12 -0.12)">
       <use xlink:href="#DejaVuSans-5b"/>
       <use xlink:href="#DejaVuSans-35" x="39.013672"/>
       <use xlink:href="#DejaVuSans-30" x="102.636719"/>
       <use xlink:href="#DejaVuSans-2c" x="166.259766"/>
       <use xlink:href="#DejaVuSans-20" x="198.046875"/>
       <use xlink:href="#DejaVuSans-2b" x="229.833984"/>
       <use xlink:href="#DejaVuSans-221e" x="313.623047"/>
       <use xlink:href="#DejaVuSans-29" x="396.923828"/>
      </g>
     </g>
    </g>
    <g id="text_45">
     <!-- Triple level SE Ranges -->
     <g transform="translate(769.939015 353.9555)scale(0.144 -0.144)">
      <use xlink:href="#DejaVuSans-54"/>
      <use xlink:href="#DejaVuSans-72" x="46.333984"/>
      <use xlink:href="#DejaVuSans-69" x="87.447266"/>
      <use xlink:href="#DejaVuSans-70" x="115.230469"/>
      <use xlink:href="#DejaVuSans-6c" x="178.707031"/>
      <use xlink:href="#DejaVuSans-65" x="206.490234"/>
      <use xlink:href="#DejaVuSans-20" x="268.013672"/>
      <use xlink:href="#DejaVuSans-6c" x="299.800781"/>
      <use xlink:href="#DejaVuSans-65" x="327.583984"/>
      <use xlink:href="#DejaVuSans-76" x="389.107422"/>
      <use xlink:href="#DejaVuSans-65" x="448.287109"/>
      <use xlink:href="#DejaVuSans-6c" x="509.810547"/>
      <use xlink:href="#DejaVuSans-20" x="537.59375"/>
      <use xlink:href="#DejaVuSans-53" x="569.380859"/>
      <use xlink:href="#DejaVuSans-45" x="632.857422"/>
      <use xlink:href="#DejaVuSans-20" x="696.041016"/>
      <use xlink:href="#DejaVuSans-52" x="727.828125"/>
      <use xlink:href="#DejaVuSans-61" x="795.060547"/>
      <use xlink:href="#DejaVuSans-6e" x="856.339844"/>
      <use xlink:href="#DejaVuSans-67" x="919.71875"/>
      <use xlink:href="#DejaVuSans-65" x="983.195312"/>
      <use xlink:href="#DejaVuSans-73" x="1044.71875"/>
     </g>
    </g>
   </g>
   <g id="matplotlib.axis_8">
    <g id="ytick_15">
     <g id="line2d_30">
      <g>
       <use xlink:href="#mb00f0e9621" x="725.823529" y="320.4" style="stroke: #000000; stroke-width: 0.8"/>
      </g>
     </g>
     <g id="text_46">
      <!-- 0 -->
      <g transform="translate(711.188529 324.959063)scale(0.12 -0.12)">
       <use xlink:href="#DejaVuSans-30"/>
      </g>
     </g>
    </g>
    <g id="ytick_16">
     <g id="line2d_31">
      <g>
       <use xlink:href="#mb00f0e9621" x="725.823529" y="278.172815" style="stroke: #000000; stroke-width: 0.8"/>
      </g>
     </g>
     <g id="text_47">
      <!-- 100 -->
      <g transform="translate(695.918529 282.731878)scale(0.12 -0.12)">
       <use xlink:href="#DejaVuSans-31"/>
       <use xlink:href="#DejaVuSans-30" x="63.623047"/>
       <use xlink:href="#DejaVuSans-30" x="127.246094"/>
      </g>
     </g>
    </g>
    <g id="ytick_17">
     <g id="line2d_32">
      <g>
       <use xlink:href="#mb00f0e9621" x="725.823529" y="235.94563" style="stroke: #000000; stroke-width: 0.8"/>
      </g>
     </g>
     <g id="text_48">
      <!-- 200 -->
      <g transform="translate(695.918529 240.504693)scale(0.12 -0.12)">
       <use xlink:href="#DejaVuSans-32"/>
       <use xlink:href="#DejaVuSans-30" x="63.623047"/>
       <use xlink:href="#DejaVuSans-30" x="127.246094"/>
      </g>
     </g>
    </g>
    <g id="ytick_18">
     <g id="line2d_33">
      <g>
       <use xlink:href="#mb00f0e9621" x="725.823529" y="193.718445" style="stroke: #000000; stroke-width: 0.8"/>
      </g>
     </g>
     <g id="text_49">
      <!-- 300 -->
      <g transform="translate(695.918529 198.277508)scale(0.12 -0.12)">
       <use xlink:href="#DejaVuSans-33"/>
       <use xlink:href="#DejaVuSans-30" x="63.623047"/>
       <use xlink:href="#DejaVuSans-30" x="127.246094"/>
      </g>
     </g>
    </g>
    <g id="ytick_19">
     <g id="line2d_34">
      <g>
       <use xlink:href="#mb00f0e9621" x="725.823529" y="151.49126" style="stroke: #000000; stroke-width: 0.8"/>
      </g>
     </g>
     <g id="text_50">
      <!-- 400 -->
      <g transform="translate(695.918529 156.050323)scale(0.12 -0.12)">
       <use xlink:href="#DejaVuSans-34"/>
       <use xlink:href="#DejaVuSans-30" x="63.623047"/>
       <use xlink:href="#DejaVuSans-30" x="127.246094"/>
      </g>
     </g>
    </g>
    <g id="ytick_20">
     <g id="line2d_35">
      <g>
       <use xlink:href="#mb00f0e9621" x="725.823529" y="109.264075" style="stroke: #000000; stroke-width: 0.8"/>
      </g>
     </g>
     <g id="text_51">
      <!-- 500 -->
      <g transform="translate(695.918529 113.823138)scale(0.12 -0.12)">
       <use xlink:href="#DejaVuSans-35"/>
       <use xlink:href="#DejaVuSans-30" x="63.623047"/>
       <use xlink:href="#DejaVuSans-30" x="127.246094"/>
      </g>
     </g>
    </g>
    <g id="ytick_21">
     <g id="line2d_36">
      <g>
       <use xlink:href="#mb00f0e9621" x="725.823529" y="67.03689" style="stroke: #000000; stroke-width: 0.8"/>
      </g>
     </g>
     <g id="text_52">
      <!-- 600 -->
      <g transform="translate(695.918529 71.595953)scale(0.12 -0.12)">
       <use xlink:href="#DejaVuSans-36"/>
       <use xlink:href="#DejaVuSans-30" x="63.623047"/>
       <use xlink:href="#DejaVuSans-30" x="127.246094"/>
      </g>
     </g>
    </g>
   </g>
   <g id="patch_95">
    <path d="M 725.823529 320.4 
L 725.823529 43.2 
" style="fill: none; stroke: #000000; stroke-width: 0.8; stroke-linejoin: miter; stroke-linecap: square"/>
   </g>
   <g id="patch_96">
    <path d="M 972 320.4 
L 972 43.2 
" style="fill: none; stroke: #000000; stroke-width: 0.8; stroke-linejoin: miter; stroke-linecap: square"/>
   </g>
   <g id="patch_97">
    <path d="M 725.823529 320.4 
L 972 320.4 
" style="fill: none; stroke: #000000; stroke-width: 0.8; stroke-linejoin: miter; stroke-linecap: square"/>
   </g>
   <g id="patch_98">
    <path d="M 725.823529 43.2 
L 972 43.2 
" style="fill: none; stroke: #000000; stroke-width: 0.8; stroke-linejoin: miter; stroke-linecap: square"/>
   </g>
   <g id="legend_3">
    <g id="patch_99">
     <path d="M 881.596875 139.26875 
L 965 139.26875 
Q 967 139.26875 967 137.26875 
L 967 50.2 
Q 967 48.2 965 48.2 
L 881.596875 48.2 
Q 879.596875 48.2 879.596875 50.2 
L 879.596875 137.26875 
Q 879.596875 139.26875 881.596875 139.26875 
z
" style="fill: #ffffff; opacity: 0.8; stroke: #cccccc; stroke-linejoin: miter"/>
    </g>
    <g id="patch_100">
     <path d="M 883.596875 59.798437 
L 903.596875 59.798437 
L 903.596875 52.798437 
L 883.596875 52.798437 
z
" style="fill: #1f77b4"/>
    </g>
    <g id="text_53">
     <!-- ConvE -->
     <g transform="translate(911.596875 59.798437)scale(0.1 -0.1)">
      <use xlink:href="#DejaVuSans-43"/>
      <use xlink:href="#DejaVuSans-6f" x="69.824219"/>
      <use xlink:href="#DejaVuSans-6e" x="131.005859"/>
      <use xlink:href="#DejaVuSans-76" x="194.384766"/>
      <use xlink:href="#DejaVuSans-45" x="253.564453"/>
     </g>
    </g>
    <g id="patch_101">
     <path d="M 883.596875 74.476562 
L 903.596875 74.476562 
L 903.596875 67.476562 
L 883.596875 67.476562 
z
" style="fill: #ff7f0e"/>
    </g>
    <g id="text_54">
     <!-- CompGCN -->
     <g transform="translate(911.596875 74.476562)scale(0.1 -0.1)">
      <use xlink:href="#DejaVuSans-43"/>
      <use xlink:href="#DejaVuSans-6f" x="69.824219"/>
      <use xlink:href="#DejaVuSans-6d" x="131.005859"/>
      <use xlink:href="#DejaVuSans-70" x="228.417969"/>
      <use xlink:href="#DejaVuSans-47" x="291.894531"/>
      <use xlink:href="#DejaVuSans-43" x="369.384766"/>
      <use xlink:href="#DejaVuSans-4e" x="439.208984"/>
     </g>
    </g>
    <g id="patch_102">
     <path d="M 883.596875 89.154687 
L 903.596875 89.154687 
L 903.596875 82.154687 
L 883.596875 82.154687 
z
" style="fill: #2ca02c"/>
    </g>
    <g id="text_55">
     <!-- RotatE -->
     <g transform="translate(911.596875 89.154687)scale(0.1 -0.1)">
      <use xlink:href="#DejaVuSans-52"/>
      <use xlink:href="#DejaVuSans-6f" x="64.982422"/>
      <use xlink:href="#DejaVuSans-74" x="126.164062"/>
      <use xlink:href="#DejaVuSans-61" x="165.373047"/>
      <use xlink:href="#DejaVuSans-74" x="226.652344"/>
      <use xlink:href="#DejaVuSans-45" x="265.861328"/>
     </g>
    </g>
    <g id="patch_103">
     <path d="M 883.596875 103.832812 
L 903.596875 103.832812 
L 903.596875 96.832812 
L 883.596875 96.832812 
z
" style="fill: #d62728"/>
    </g>
    <g id="text_56">
     <!-- TransE -->
     <g transform="translate(911.596875 103.832812)scale(0.1 -0.1)">
      <use xlink:href="#DejaVuSans-54"/>
      <use xlink:href="#DejaVuSans-72" x="46.333984"/>
      <use xlink:href="#DejaVuSans-61" x="87.447266"/>
      <use xlink:href="#DejaVuSans-6e" x="148.726562"/>
      <use xlink:href="#DejaVuSans-73" x="212.105469"/>
      <use xlink:href="#DejaVuSans-45" x="264.205078"/>
     </g>
    </g>
    <g id="patch_104">
     <path d="M 883.596875 118.510937 
L 903.596875 118.510937 
L 903.596875 111.510937 
L 883.596875 111.510937 
z
" style="fill: #9467bd"/>
    </g>
    <g id="text_57">
     <!-- DistMult -->
     <g transform="translate(911.596875 118.510937)scale(0.1 -0.1)">
      <use xlink:href="#DejaVuSans-44"/>
      <use xlink:href="#DejaVuSans-69" x="77.001953"/>
      <use xlink:href="#DejaVuSans-73" x="104.785156"/>
      <use xlink:href="#DejaVuSans-74" x="156.884766"/>
      <use xlink:href="#DejaVuSans-4d" x="196.09375"/>
      <use xlink:href="#DejaVuSans-75" x="282.373047"/>
      <use xlink:href="#DejaVuSans-6c" x="345.751953"/>
      <use xlink:href="#DejaVuSans-74" x="373.535156"/>
     </g>
    </g>
    <g id="patch_105">
     <path d="M 883.596875 133.189062 
L 903.596875 133.189062 
L 903.596875 126.189062 
L 883.596875 126.189062 
z
" style="fill: #8c564b"/>
    </g>
    <g id="text_58">
     <!-- ComplEx -->
     <g transform="translate(911.596875 133.189062)scale(0.1 -0.1)">
      <use xlink:href="#DejaVuSans-43"/>
      <use xlink:href="#DejaVuSans-6f" x="69.824219"/>
      <use xlink:href="#DejaVuSans-6d" x="131.005859"/>
      <use xlink:href="#DejaVuSans-70" x="228.417969"/>
      <use xlink:href="#DejaVuSans-6c" x="291.894531"/>
      <use xlink:href="#DejaVuSans-45" x="319.677734"/>
      <use xlink:href="#DejaVuSans-78" x="382.861328"/>
     </g>
    </g>
   </g>
  </g>
  <g id="axes_6">
   <g id="patch_106">
    <path d="M 737.013369 320.4 
L 757.358532 320.4 
L 757.358532 320.4 
L 737.013369 320.4 
z
" clip-path="url(#pa664f09518)" style="fill: #1f77b4"/>
   </g>
   <g id="patch_107">
    <path d="M 838.739183 320.4 
L 859.084346 320.4 
L 859.084346 320.4 
L 838.739183 320.4 
z
" clip-path="url(#pa664f09518)" style="fill: #1f77b4"/>
   </g>
   <g id="patch_108">
    <path d="M 940.464998 320.4 
L 960.81016 320.4 
L 960.81016 320.4 
L 940.464998 320.4 
z
" clip-path="url(#pa664f09518)" style="fill: #1f77b4"/>
   </g>
   <g id="matplotlib.axis_9">
    <g id="xtick_16">
     <g id="line2d_37">
      <g>
       <use xlink:href="#m3932d7ebb2" x="747.18595" y="43.2" style="stroke: #000000; stroke-width: 0.8"/>
      </g>
     </g>
     <g id="text_59">
      <!-- #:34.9% -->
      <g transform="translate(721.076575 33.704375)scale(0.12 -0.12)">
       <use xlink:href="#DejaVuSans-23"/>
       <use xlink:href="#DejaVuSans-3a" x="83.789062"/>
       <use xlink:href="#DejaVuSans-33" x="117.480469"/>
       <use xlink:href="#DejaVuSans-34" x="181.103516"/>
       <use xlink:href="#DejaVuSans-2e" x="244.726562"/>
       <use xlink:href="#DejaVuSans-39" x="276.513672"/>
       <use xlink:href="#DejaVuSans-25" x="340.136719"/>
      </g>
     </g>
    </g>
    <g id="xtick_17">
     <g id="line2d_38">
      <g>
       <use xlink:href="#m3932d7ebb2" x="848.911765" y="43.2" style="stroke: #000000; stroke-width: 0.8"/>
      </g>
     </g>
     <g id="text_60">
      <!-- #:33.6% -->
      <g transform="translate(822.80239 33.704375)scale(0.12 -0.12)">
       <use xlink:href="#DejaVuSans-23"/>
       <use xlink:href="#DejaVuSans-3a" x="83.789062"/>
       <use xlink:href="#DejaVuSans-33" x="117.480469"/>
       <use xlink:href="#DejaVuSans-33" x="181.103516"/>
       <use xlink:href="#DejaVuSans-2e" x="244.726562"/>
       <use xlink:href="#DejaVuSans-36" x="276.513672"/>
       <use xlink:href="#DejaVuSans-25" x="340.136719"/>
      </g>
     </g>
    </g>
    <g id="xtick_18">
     <g id="line2d_39">
      <g>
       <use xlink:href="#m3932d7ebb2" x="950.637579" y="43.2" style="stroke: #000000; stroke-width: 0.8"/>
      </g>
     </g>
     <g id="text_61">
      <!-- #:31.5% -->
      <g transform="translate(924.528204 33.704375)scale(0.12 -0.12)">
       <use xlink:href="#DejaVuSans-23"/>
       <use xlink:href="#DejaVuSans-3a" x="83.789062"/>
       <use xlink:href="#DejaVuSans-33" x="117.480469"/>
       <use xlink:href="#DejaVuSans-31" x="181.103516"/>
       <use xlink:href="#DejaVuSans-2e" x="244.726562"/>
       <use xlink:href="#DejaVuSans-35" x="276.513672"/>
       <use xlink:href="#DejaVuSans-25" x="340.136719"/>
      </g>
     </g>
    </g>
   </g>
   <g id="patch_109">
    <path d="M 725.823529 320.4 
L 725.823529 43.2 
" style="fill: none; stroke: #000000; stroke-width: 0.8; stroke-linejoin: miter; stroke-linecap: square"/>
   </g>
   <g id="patch_110">
    <path d="M 972 320.4 
L 972 43.2 
" style="fill: none; stroke: #000000; stroke-width: 0.8; stroke-linejoin: miter; stroke-linecap: square"/>
   </g>
   <g id="patch_111">
    <path d="M 725.823529 320.4 
L 972 320.4 
" style="fill: none; stroke: #000000; stroke-width: 0.8; stroke-linejoin: miter; stroke-linecap: square"/>
   </g>
   <g id="patch_112">
    <path d="M 725.823529 43.2 
L 972 43.2 
" style="fill: none; stroke: #000000; stroke-width: 0.8; stroke-linejoin: miter; stroke-linecap: square"/>
   </g>
  </g>
 </g>
 <defs>
  <clipPath id="p42a6186f11">
   <rect x="135" y="43.2" width="246.176471" height="277.2"/>
  </clipPath>
  <clipPath id="p30064e8dd3">
   <rect x="430.411765" y="43.2" width="246.176471" height="277.2"/>
  </clipPath>
  <clipPath id="pa664f09518">
   <rect x="725.823529" y="43.2" width="246.176471" height="277.2"/>
  </clipPath>
 </defs>
</svg>
